Rokkitt Light 100-400.ufo
<glyph name="exclam" format="1">
  <advance width="391"/>
  <unicode hex="0021"/>
  <outline>
    <contour>
      <point x="168" y="323" type="line"/>
      <point x="223" y="323" type="line"/>
      <point x="267" y="799" type="line"/>
      <point x="267" y="1154" type="line"/>
      <point x="124" y="1154" type="line"/>
      <point x="124" y="799" type="line"/>
    </contour>
    <contour>
      <point x="109" y="0" type="line"/>
      <point x="282" y="0" type="line"/>
      <point x="282" y="174" type="line"/>
      <point x="109" y="174" type="line"/>
    </contour>
  </outline>
</glyph>
<glyph name="quotedbl" format="1">
  <advance width="629"/>
  <unicode hex="0022"/>
  <outline>
    <contour>
      <point x="134" y="762" type="line"/>
      <point x="218" y="762" type="line"/>
      <point x="257" y="1192" type="line"/>
      <point x="94" y="1192" type="line"/>
    </contour>
    <contour>
      <point x="413" y="762" type="line"/>
      <point x="497" y="762" type="line"/>
      <point x="536" y="1192" type="line"/>
      <point x="375" y="1192" type="line"/>
    </contour>
  </outline>
</glyph>
<glyph name="numbersign" format="1">
  <advance width="1122"/>
  <unicode hex="0023"/>
  <outline>
    <contour>
      <point x="224" y="0" type="line"/>
      <point x="329" y="0" type="line"/>
      <point x="363" y="346" type="line"/>
      <point x="695" y="346" type="line"/>
      <point x="664" y="0" type="line"/>
      <point x="769" y="0" type="line"/>
      <point x="803" y="346" type="line"/>
      <point x="1012" y="346" type="line"/>
      <point x="1021" y="437" type="line"/>
      <point x="815" y="437" type="line"/>
      <point x="844" y="745" type="line"/>
      <point x="1036" y="745" type="line"/>
      <point x="1046" y="837" type="line"/>
      <point x="856" y="837" type="line"/>
      <point x="889" y="1165" type="line"/>
      <point x="783" y="1165" type="line"/>
      <point x="748" y="837" type="line"/>
      <point x="418" y="837" type="line"/>
      <point x="450" y="1165" type="line"/>
      <point x="343" y="1165" type="line"/>
      <point x="311" y="837" type="line"/>
      <point x="116" y="837" type="line"/>
      <point x="107" y="745" type="line"/>
      <point x="299" y="745" type="line"/>
      <point x="268" y="437" type="line"/>
      <point x="92" y="437" type="line"/>
      <point x="82" y="346" type="line"/>
      <point x="256" y="346" type="line"/>
    </contour>
    <contour>
      <point x="375" y="437" type="line"/>
      <point x="405" y="745" type="line"/>
      <point x="736" y="745" type="line"/>
      <point x="707" y="437" type="line"/>
    </contour>
  </outline>
</glyph>
<glyph name="dollar" format="1">
  <advance width="1146"/>
  <unicode hex="0024"/>
  <outline>
    <contour>
      <point x="567" y="-159" type="line"/>
      <point x="635" y="-159" type="line"/>
      <point x="635" y="1309" type="line"/>
      <point x="567" y="1309" type="line"/>
    </contour>
    <component base="S"/>
  </outline>
</glyph>
<glyph name="percent" format="1">
  <advance width="1583"/>
  <unicode hex="0025"/>
  <outline>
    <contour>
      <point x="390" y="668" type="curve" smooth="yes"/>
      <point x="282" y="668"/>
      <point x="177" y="740"/>
      <point x="177" y="882" type="curve" smooth="yes"/>
      <point x="177" y="1021"/>
      <point x="282" y="1094"/>
      <point x="390" y="1094" type="curve" smooth="yes"/>
      <point x="497" y="1094"/>
      <point x="605" y="1021"/>
      <point x="605" y="882" type="curve" smooth="yes"/>
      <point x="605" y="740"/>
      <point x="497" y="668"/>
    </contour>
    <contour>
      <point x="390" y="587" type="curve" smooth="yes"/>
      <point x="542" y="587"/>
      <point x="695" y="687"/>
      <point x="695" y="882" type="curve" smooth="yes"/>
      <point x="695" y="1076"/>
      <point x="542" y="1173"/>
      <point x="390" y="1173" type="curve" smooth="yes"/>
      <point x="236" y="1173"/>
      <point x="87" y="1074"/>
      <point x="87" y="882" type="curve" smooth="yes"/>
      <point x="87" y="687"/>
      <point x="237" y="587"/>
    </contour>
    <contour>
      <point x="308" y="-47" type="line"/>
      <point x="1350" y="1171" type="line"/>
      <point x="1299" y="1222" type="line"/>
      <point x="253" y="10" type="line"/>
    </contour>
    <contour>
      <point x="1185" y="57" type="curve" smooth="yes"/>
      <point x="1077" y="57"/>
      <point x="971" y="130"/>
      <point x="971" y="271" type="curve" smooth="yes"/>
      <point x="971" y="411"/>
      <point x="1077" y="484"/>
      <point x="1185" y="484" type="curve" smooth="yes"/>
      <point x="1291" y="484"/>
      <point x="1400" y="411"/>
      <point x="1400" y="271" type="curve" smooth="yes"/>
      <point x="1400" y="130"/>
      <point x="1291" y="57"/>
    </contour>
    <contour>
      <point x="1185" y="-23" type="curve" smooth="yes"/>
      <point x="1336" y="-23"/>
      <point x="1490" y="77"/>
      <point x="1490" y="271" type="curve" smooth="yes"/>
      <point x="1490" y="465"/>
      <point x="1336" y="563"/>
      <point x="1185" y="563" type="curve" smooth="yes"/>
      <point x="1031" y="563"/>
      <point x="882" y="463"/>
      <point x="882" y="271" type="curve" smooth="yes"/>
      <point x="882" y="77"/>
      <point x="1032" y="-23"/>
    </contour>
  </outline>
</glyph>
<glyph name="ampersand" format="1">
  <advance width="1174"/>
  <unicode hex="0026"/>
  <outline>
    <contour>
      <point x="459" y="-20" type="curve" smooth="yes"/>
      <point x="573" y="-20"/>
      <point x="687" y="15"/>
      <point x="794" y="111" type="curve"/>
      <point x="883" y="0" type="line"/>
      <point x="1117" y="0" type="line"/>
      <point x="1117" y="104" type="line"/>
      <point x="944" y="104" type="line"/>
      <point x="869" y="201" type="line"/>
      <point x="909" y="245"/>
      <point x="965" y="337"/>
      <point x="987" y="443" type="curve"/>
      <point x="1117" y="443" type="line"/>
      <point x="1117" y="547" type="line"/>
      <point x="902" y="547" type="line"/>
      <point x="888" y="425"/>
      <point x="842" y="345"/>
      <point x="804" y="292" type="curve"/>
      <point x="535" y="624" type="line"/>
      <point x="717" y="701"/>
      <point x="791" y="805"/>
      <point x="791" y="939" type="curve" smooth="yes"/>
      <point x="791" y="1074"/>
      <point x="670" y="1172"/>
      <point x="517" y="1172" type="curve" smooth="yes"/>
      <point x="361" y="1172"/>
      <point x="237" y="1069"/>
      <point x="237" y="929" type="curve" smooth="yes"/>
      <point x="237" y="842"/>
      <point x="315" y="731"/>
      <point x="367" y="665" type="curve"/>
      <point x="158" y="592"/>
      <point x="69" y="478"/>
      <point x="69" y="317" type="curve" smooth="yes"/>
      <point x="69" y="118"/>
      <point x="247" y="-20"/>
    </contour>
    <contour>
      <point x="479" y="92" type="curve" smooth="yes"/>
      <point x="319" y="92"/>
      <point x="195" y="190"/>
      <point x="195" y="327" type="curve" smooth="yes"/>
      <point x="195" y="438"/>
      <point x="262" y="528"/>
      <point x="429" y="583" type="curve"/>
      <point x="730" y="198" type="line"/>
      <point x="651" y="119"/>
      <point x="569" y="92"/>
    </contour>
    <contour>
      <point x="476" y="706" type="curve"/>
      <point x="441" y="754"/>
      <point x="353" y="842"/>
      <point x="353" y="941" type="curve" smooth="yes"/>
      <point x="353" y="1021"/>
      <point x="429" y="1065"/>
      <point x="516" y="1065" type="curve" smooth="yes"/>
      <point x="607" y="1065"/>
      <point x="678" y="1024"/>
      <point x="678" y="935" type="curve" smooth="yes"/>
      <point x="678" y="823"/>
      <point x="601" y="763"/>
    </contour>
  </outline>
</glyph>
<glyph name="parenleft" format="1">
  <advance width="517"/>
  <unicode hex="0028"/>
  <outline>
    <contour>
      <point x="441" y="-114" type="curve"/>
      <point x="443" y="-24" type="line"/>
      <point x="300" y="36"/>
      <point x="228" y="283"/>
      <point x="228" y="531" type="curve" smooth="yes"/>
      <point x="228" y="778"/>
      <point x="300" y="1026"/>
      <point x="443" y="1085" type="curve"/>
      <point x="441" y="1174" type="line"/>
      <point x="189" y="1086"/>
      <point x="63" y="807"/>
      <point x="63" y="529" type="curve" smooth="yes"/>
      <point x="63" y="250"/>
      <point x="189" y="-28"/>
    </contour>
  </outline>
</glyph>
<glyph name="parenright" format="1">
  <advance width="517"/>
  <unicode hex="0029"/>
  <outline>
    <contour>
      <point x="89" y="-114" type="line"/>
      <point x="342" y="-28"/>
      <point x="468" y="250"/>
      <point x="468" y="529" type="curve" smooth="yes"/>
      <point x="468" y="807"/>
      <point x="342" y="1086"/>
      <point x="89" y="1174" type="curve"/>
      <point x="87" y="1085" type="line"/>
      <point x="231" y="1026"/>
      <point x="302" y="778"/>
      <point x="302" y="531" type="curve" smooth="yes"/>
      <point x="302" y="283"/>
      <point x="231" y="36"/>
      <point x="87" y="-24" type="curve"/>
    </contour>
  </outline>
</glyph>
<glyph name="asterisk" format="1">
  <advance width="936"/>
  <unicode hex="002A"/>
  <outline>
    <contour>
      <point x="265" y="412" type="line"/>
      <point x="468" y="753" type="line"/>
      <point x="671" y="412" type="line"/>
      <point x="768" y="483" type="line"/>
      <point x="504" y="780" type="line"/>
      <point x="887" y="880" type="line"/>
      <point x="850" y="992" type="line"/>
      <point x="489" y="819" type="line"/>
      <point x="529" y="1216" type="line"/>
      <point x="407" y="1216" type="line"/>
      <point x="448" y="819" type="line"/>
      <point x="86" y="992" type="line"/>
      <point x="49" y="880" type="line"/>
      <point x="433" y="780" type="line"/>
      <point x="168" y="483" type="line"/>
    </contour>
  </outline>
</glyph>
<glyph name="plus" format="1">
  <advance width="962"/>
  <unicode hex="002B"/>
  <outline>
    <contour>
      <point x="429" y="108" type="line"/>
      <point x="533" y="108" type="line"/>
      <point x="533" y="501" type="line"/>
      <point x="921" y="501" type="line"/>
      <point x="921" y="601" type="line"/>
      <point x="533" y="601" type="line"/>
      <point x="533" y="990" type="line"/>
      <point x="429" y="990" type="line"/>
      <point x="429" y="601" type="line"/>
      <point x="41" y="601" type="line"/>
      <point x="41" y="501" type="line"/>
      <point x="429" y="501" type="line"/>
    </contour>
  </outline>
</glyph>
<glyph name="comma" format="1">
  <advance width="444"/>
  <unicode hex="002C"/>
  <outline>
    <contour>
      <point x="152" y="-213" type="line"/>
      <point x="288" y="-213"/>
      <point x="331" y="-129"/>
      <point x="331" y="4" type="curve"/>
      <point x="331" y="20"/>
      <point x="330" y="149"/>
      <point x="329" y="162" type="curve"/>
      <point x="308" y="162"/>
      <point x="176" y="161"/>
      <point x="158" y="160" type="curve"/>
      <point x="158" y="143"/>
      <point x="159" y="14"/>
      <point x="159" y="-2" type="curve"/>
      <point x="245" y="-2" type="line"/>
      <point x="245" y="-96"/>
      <point x="229" y="-127"/>
      <point x="152" y="-148" type="curve"/>
    </contour>
  </outline>
</glyph>
<glyph name="zero" format="1">
  <advance width="1026"/>
  <unicode hex="0030"/>
  <outline>
    <contour>
      <point x="510" y="82" type="curve" smooth="yes"/>
      <point x="292" y="84"/>
      <point x="226" y="265"/>
      <point x="226" y="575" type="curve" smooth="yes"/>
      <point x="226" y="856"/>
      <point x="296" y="1069"/>
      <point x="512" y="1069" type="curve" smooth="yes"/>
      <point x="741" y="1069"/>
      <point x="801" y="858"/>
      <point x="801" y="575" type="curve" smooth="yes"/>
      <point x="801" y="280"/>
      <point x="740" y="82"/>
    </contour>
    <contour>
      <point x="513" y="-20" type="curve" smooth="yes"/>
      <point x="816" y="-20"/>
      <point x="929" y="231"/>
      <point x="929" y="576" type="curve" smooth="yes"/>
      <point x="929" y="904"/>
      <point x="815" y="1171"/>
      <point x="513" y="1171" type="curve" smooth="yes"/>
      <point x="209" y="1171"/>
      <point x="97" y="918"/>
      <point x="97" y="576" type="curve" smooth="yes"/>
      <point x="97" y="246"/>
      <point x="211" y="-20"/>
    </contour>
  </outline>
</glyph>
<glyph name="one" format="1">
  <advance width="829"/>
  <unicode hex="0031"/>
  <outline>
    <contour>
      <point x="227" y="0" type="line"/>
      <point x="673" y="0" type="line"/>
      <point x="673" y="97" type="line"/>
      <point x="518" y="97" type="line"/>
      <point x="518" y="1153" type="line"/>
      <point x="223" y="1138" type="line"/>
      <point x="228" y="1040" type="line"/>
      <point x="393" y="1049" type="line"/>
      <point x="393" y="97" type="line"/>
      <point x="227" y="97" type="line"/>
    </contour>
  </outline>
</glyph>
<glyph name="two" format="1">
  <advance width="970"/>
  <unicode hex="0032"/>
  <outline>
    <contour>
      <point x="114" y="0" type="line"/>
      <point x="871" y="0" type="line"/>
      <point x="871" y="323" type="line"/>
      <point x="761" y="323" type="line"/>
      <point x="761" y="102" type="line"/>
      <point x="280" y="102" type="line"/>
      <point x="646" y="464" type="line" smooth="yes"/>
      <point x="797" y="613"/>
      <point x="864" y="723"/>
      <point x="864" y="846" type="curve" smooth="yes"/>
      <point x="864" y="1047"/>
      <point x="723" y="1171"/>
      <point x="497" y="1171" type="curve" smooth="yes"/>
      <point x="245" y="1171"/>
      <point x="114" y="1033"/>
      <point x="114" y="833" type="curve" smooth="yes"/>
      <point x="114" y="792"/>
      <point x="119" y="750"/>
      <point x="129" y="706" type="curve"/>
      <point x="249" y="706" type="line"/>
      <point x="239" y="746"/>
      <point x="234" y="784"/>
      <point x="234" y="820" type="curve" smooth="yes"/>
      <point x="234" y="972"/>
      <point x="329" y="1063"/>
      <point x="496" y="1063" type="curve" smooth="yes"/>
      <point x="645" y="1063"/>
      <point x="736" y="983"/>
      <point x="736" y="849" type="curve" smooth="yes"/>
      <point x="736" y="750"/>
      <point x="681" y="666"/>
      <point x="567" y="554" type="curve" smooth="yes"/>
      <point x="113" y="102" type="line"/>
    </contour>
  </outline>
</glyph>
<glyph name="three" format="1">
  <advance width="996"/>
  <unicode hex="0033"/>
  <outline>
    <contour>
      <point x="507" y="-19" type="curve" smooth="yes"/>
      <point x="736" y="-19"/>
      <point x="912" y="103"/>
      <point x="912" y="323" type="curve" smooth="yes"/>
      <point x="912" y="481"/>
      <point x="810" y="579"/>
      <point x="658" y="604" type="curve"/>
      <point x="797" y="638"/>
      <point x="873" y="730"/>
      <point x="873" y="865" type="curve" smooth="yes"/>
      <point x="873" y="1064"/>
      <point x="718" y="1171"/>
      <point x="498" y="1171" type="curve" smooth="yes"/>
      <point x="300" y="1171"/>
      <point x="171" y="1097"/>
      <point x="94" y="956" type="curve"/>
      <point x="198" y="900" type="line"/>
      <point x="264" y="1012"/>
      <point x="364" y="1060"/>
      <point x="498" y="1060" type="curve" smooth="yes"/>
      <point x="647" y="1060"/>
      <point x="744" y="988"/>
      <point x="744" y="856" type="curve" smooth="yes"/>
      <point x="744" y="699"/>
      <point x="617" y="659"/>
      <point x="405" y="659" type="curve"/>
      <point x="405" y="547" type="line"/>
      <point x="646" y="547"/>
      <point x="777" y="469"/>
      <point x="777" y="327" type="curve" smooth="yes"/>
      <point x="777" y="169"/>
      <point x="672" y="93"/>
      <point x="503" y="93" type="curve" smooth="yes"/>
      <point x="359" y="93"/>
      <point x="262" y="165"/>
      <point x="210" y="266" type="curve"/>
      <point x="106" y="204" type="line"/>
      <point x="177" y="71"/>
      <point x="309" y="-19"/>
    </contour>
  </outline>
</glyph>
<glyph name="four" format="1">
  <advance width="960"/>
  <unicode hex="0034"/>
  <outline>
    <contour>
      <point x="384" y="0" type="line"/>
      <point x="835" y="0" type="line"/>
      <point x="835" y="97" type="line"/>
      <point x="678" y="97" type="line"/>
      <point x="678" y="328" type="line"/>
      <point x="884" y="328" type="line"/>
      <point x="884" y="428" type="line"/>
      <point x="678" y="428" type="line"/>
      <point x="678" y="1152" type="line"/>
      <point x="550" y="1152" type="line"/>
      <point x="47" y="422" type="line"/>
      <point x="62" y="328" type="line"/>
      <point x="558" y="328" type="line"/>
      <point x="558" y="97" type="line"/>
      <point x="384" y="97" type="line"/>
    </contour>
    <contour>
      <point x="184" y="428" type="line"/>
      <point x="558" y="990" type="line"/>
      <point x="558" y="428" type="line"/>
    </contour>
  </outline>
</glyph>
<glyph name="five" format="1">
  <advance width="1014"/>
  <unicode hex="0035"/>
  <outline>
    <contour>
      <point x="515" y="-21" type="curve" smooth="yes"/>
      <point x="729" y="-21"/>
      <point x="926" y="105"/>
      <point x="926" y="359" type="curve" smooth="yes"/>
      <point x="926" y="601"/>
      <point x="764" y="749"/>
      <point x="557" y="749" type="curve" smooth="yes"/>
      <point x="468" y="749"/>
      <point x="364" y="720"/>
      <point x="283" y="658" type="curve"/>
      <point x="296" y="1053" type="line"/>
      <point x="739" y="1053" type="line"/>
      <point x="739" y="890" type="line"/>
      <point x="841" y="890" type="line"/>
      <point x="841" y="1152" type="line"/>
      <point x="190" y="1152" type="line"/>
      <point x="174" y="573" type="line"/>
      <point x="253" y="533" type="line"/>
      <point x="350" y="613"/>
      <point x="452" y="648"/>
      <point x="547" y="648" type="curve" smooth="yes"/>
      <point x="699" y="648"/>
      <point x="803" y="536"/>
      <point x="803" y="359" type="curve" smooth="yes"/>
      <point x="803" y="166"/>
      <point x="674" y="77"/>
      <point x="517" y="77" type="curve" smooth="yes"/>
      <point x="396" y="77"/>
      <point x="264" y="143"/>
      <point x="192" y="267" type="curve"/>
      <point x="119" y="186" type="line"/>
      <point x="206" y="51"/>
      <point x="364" y="-21"/>
    </contour>
  </outline>
</glyph>
<glyph name="six" format="1">
  <advance width="905"/>
  <unicode hex="0036"/>
  <outline>
    <contour>
      <point x="449" y="-22" type="curve" smooth="yes"/>
      <point x="698" y="-22"/>
      <point x="835" y="154"/>
      <point x="835" y="364" type="curve" smooth="yes"/>
      <point x="835" y="561"/>
      <point x="669" y="708"/>
      <point x="480" y="708" type="curve" smooth="yes"/>
      <point x="390" y="708"/>
      <point x="326" y="667"/>
      <point x="287" y="649" type="curve"/>
      <point x="622" y="1174" type="line"/>
      <point x="523" y="1240" type="line"/>
      <point x="183" y="686" type="line" smooth="yes"/>
      <point x="144" y="630"/>
      <point x="61" y="464"/>
      <point x="61" y="336" type="curve" smooth="yes"/>
      <point x="61" y="125"/>
      <point x="243" y="-22"/>
    </contour>
    <contour>
      <point x="452" y="76" type="curve" smooth="yes"/>
      <point x="268" y="76"/>
      <point x="183" y="204"/>
      <point x="183" y="341" type="curve" smooth="yes"/>
      <point x="183" y="520"/>
      <point x="317" y="613"/>
      <point x="459" y="613" type="curve" smooth="yes"/>
      <point x="600" y="613"/>
      <point x="719" y="518"/>
      <point x="719" y="348" type="curve" smooth="yes"/>
      <point x="719" y="206"/>
      <point x="627" y="76"/>
    </contour>
  </outline>
</glyph>
<glyph name="seven" format="1">
  <advance width="963"/>
  <unicode hex="0037"/>
  <outline>
    <contour>
      <point x="344" y="0" type="curve"/>
      <point x="471" y="0" type="line"/>
      <point x="471" y="0"/>
      <point x="661" y="611"/>
      <point x="877" y="1051" type="curve"/>
      <point x="877" y="1152" type="line"/>
      <point x="125" y="1152" type="line"/>
      <point x="125" y="858" type="line"/>
      <point x="241" y="858" type="line"/>
      <point x="241" y="1052" type="line"/>
      <point x="749" y="1052" type="line"/>
      <point x="526" y="592"/>
      <point x="344" y="0"/>
    </contour>
  </outline>
</glyph>
<glyph name="eight" format="1">
  <advance width="999"/>
  <unicode hex="0038"/>
  <outline>
    <contour>
      <point x="499" y="-20" type="curve" smooth="yes"/>
      <point x="721" y="-20"/>
      <point x="906" y="92"/>
      <point x="906" y="317" type="curve" smooth="yes"/>
      <point x="906" y="463"/>
      <point x="808" y="567"/>
      <point x="675" y="600" type="curve"/>
      <point x="794" y="640"/>
      <point x="871" y="727"/>
      <point x="871" y="870" type="curve" smooth="yes"/>
      <point x="871" y="1053"/>
      <point x="715" y="1171"/>
      <point x="500" y="1171" type="curve" smooth="yes"/>
      <point x="284" y="1171"/>
      <point x="129" y="1053"/>
      <point x="129" y="870" type="curve" smooth="yes"/>
      <point x="129" y="745"/>
      <point x="191" y="647"/>
      <point x="324" y="600" type="curve"/>
      <point x="186" y="566"/>
      <point x="94" y="463"/>
      <point x="94" y="309" type="curve" smooth="yes"/>
      <point x="94" y="90"/>
      <point x="281" y="-20"/>
    </contour>
    <contour>
      <point x="499" y="92" type="curve" smooth="yes"/>
      <point x="355" y="92"/>
      <point x="225" y="170"/>
      <point x="225" y="317" type="curve" smooth="yes"/>
      <point x="225" y="454"/>
      <point x="330" y="540"/>
      <point x="500" y="541" type="curve" smooth="yes"/>
      <point x="669" y="540"/>
      <point x="773" y="454"/>
      <point x="773" y="317" type="curve" smooth="yes"/>
      <point x="773" y="171"/>
      <point x="645" y="92"/>
    </contour>
    <contour>
      <point x="500" y="650" type="curve"/>
      <point x="358" y="656"/>
      <point x="254" y="742"/>
      <point x="254" y="864" type="curve" smooth="yes"/>
      <point x="254" y="984"/>
      <point x="353" y="1059"/>
      <point x="500" y="1059" type="curve" smooth="yes"/>
      <point x="648" y="1059"/>
      <point x="746" y="983"/>
      <point x="746" y="861" type="curve" smooth="yes"/>
      <point x="746" y="736"/>
      <point x="642" y="655"/>
    </contour>
  </outline>
</glyph>
<glyph name="nine" format="1">
  <advance width="904"/>
  <unicode hex="0039"/>
  <outline>
    <contour>
      <point x="386" y="-95" type="line"/>
      <point x="722" y="460" type="line" smooth="yes"/>
      <point x="763" y="516"/>
      <point x="844" y="684"/>
      <point x="844" y="811" type="curve" smooth="yes"/>
      <point x="844" y="1019"/>
      <point x="678" y="1168"/>
      <point x="456" y="1168" type="curve" smooth="yes"/>
      <point x="207" y="1168"/>
      <point x="70" y="993"/>
      <point x="70" y="783" type="curve" smooth="yes"/>
      <point x="70" y="586"/>
      <point x="240" y="441"/>
      <point x="428" y="441" type="curve" smooth="yes"/>
      <point x="518" y="441"/>
      <point x="580" y="479"/>
      <point x="619" y="498" type="curve"/>
      <point x="289" y="-34" type="line"/>
    </contour>
    <contour>
      <point x="447" y="534" type="curve" smooth="yes"/>
      <point x="306" y="534"/>
      <point x="186" y="629"/>
      <point x="186" y="799" type="curve" smooth="yes"/>
      <point x="186" y="942"/>
      <point x="278" y="1070"/>
      <point x="453" y="1070" type="curve" smooth="yes"/>
      <point x="618" y="1070"/>
      <point x="722" y="954"/>
      <point x="722" y="806" type="curve" smooth="yes"/>
      <point x="722" y="627"/>
      <point x="588" y="534"/>
    </contour>
  </outline>
</glyph>
<glyph name="colon" format="1">
  <advance width="423"/>
  <unicode hex="003A"/>
  <outline>
    <contour>
      <point x="117" y="65" type="line"/>
      <point x="307" y="65" type="line"/>
      <point x="307" y="245" type="line"/>
      <point x="117" y="245" type="line"/>
    </contour>
    <contour>
      <point x="117" y="638" type="line"/>
      <point x="307" y="638" type="line"/>
      <point x="307" y="818" type="line"/>
      <point x="117" y="818" type="line"/>
    </contour>
  </outline>
</glyph>
<glyph name="semicolon" format="1">
  <advance width="385"/>
  <unicode hex="003B"/>
  <outline>
    <contour>
      <point x="95" y="-152" type="line"/>
      <point x="233" y="-153"/>
      <point x="292" y="-78"/>
      <point x="291" y="64" type="curve"/>
      <point x="291" y="246" type="line"/>
      <point x="98" y="246" type="line"/>
      <point x="98" y="65" type="line"/>
      <point x="199" y="65" type="line"/>
      <point x="199" y="-29"/>
      <point x="175" y="-60"/>
      <point x="95" y="-79" type="curve"/>
    </contour>
    <contour>
      <point x="95" y="638" type="line"/>
      <point x="285" y="638" type="line"/>
      <point x="285" y="818" type="line"/>
      <point x="95" y="818" type="line"/>
    </contour>
  </outline>
</glyph>
<glyph name="equal" format="1">
  <advance width="1069"/>
  <unicode hex="003D"/>
  <outline>
    <contour>
      <point x="143" y="305" type="line"/>
      <point x="926" y="305" type="line"/>
      <point x="926" y="407" type="line"/>
      <point x="143" y="407" type="line"/>
    </contour>
    <contour>
      <point x="143" y="667" type="line"/>
      <point x="926" y="667" type="line"/>
      <point x="926" y="768" type="line"/>
      <point x="143" y="768" type="line"/>
    </contour>
  </outline>
</glyph>
<glyph name="greater" format="1">
  <advance width="1118"/>
  <unicode hex="003E"/>
  <outline>
    <contour>
      <point x="167" y="136" type="line"/>
      <point x="1009" y="523" type="line"/>
      <point x="1009" y="581" type="line"/>
      <point x="167" y="972" type="line"/>
      <point x="167" y="853" type="line"/>
      <point x="850" y="551" type="line"/>
      <point x="167" y="254" type="line"/>
    </contour>
  </outline>
</glyph>
<glyph name="at" format="1">
  <advance width="1427"/>
  <unicode hex="0040"/>
  <outline>
    <contour>
      <point x="773" y="-51" type="curve" smooth="yes"/>
      <point x="952" y="-51"/>
      <point x="1081" y="-7"/>
      <point x="1189" y="75" type="curve"/>
      <point x="1140" y="137" type="line"/>
      <point x="1044" y="66"/>
      <point x="923" y="32"/>
      <point x="773" y="32" type="curve" smooth="yes"/>
      <point x="410" y="32"/>
      <point x="208" y="237"/>
      <point x="208" y="549" type="curve" smooth="yes"/>
      <point x="208" y="877"/>
      <point x="438" y="1115"/>
      <point x="759" y="1115" type="curve" smooth="yes"/>
      <point x="1062" y="1115"/>
      <point x="1228" y="909"/>
      <point x="1228" y="689" type="curve" smooth="yes"/>
      <point x="1228" y="444"/>
      <point x="1052" y="313"/>
      <point x="983" y="313" type="curve" smooth="yes"/>
      <point x="953" y="313"/>
      <point x="938" y="351"/>
      <point x="949" y="409" type="curve"/>
      <point x="1059" y="915" type="line"/>
      <point x="955" y="915" type="line"/>
      <point x="934" y="804" type="line"/>
      <point x="888" y="897"/>
      <point x="806" y="933"/>
      <point x="727" y="933" type="curve" smooth="yes"/>
      <point x="493" y="933"/>
      <point x="380" y="719"/>
      <point x="380" y="525" type="curve" smooth="yes"/>
      <point x="380" y="330"/>
      <point x="504" y="226"/>
      <point x="628" y="226" type="curve" smooth="yes"/>
      <point x="709" y="226"/>
      <point x="791" y="265"/>
      <point x="862" y="369" type="curve"/>
      <point x="851" y="264"/>
      <point x="906" y="226"/>
      <point x="953" y="226" type="curve" smooth="yes"/>
      <point x="1154" y="226"/>
      <point x="1323" y="452"/>
      <point x="1323" y="689" type="curve" smooth="yes"/>
      <point x="1323" y="942"/>
      <point x="1160" y="1199"/>
      <point x="763" y="1199" type="curve" smooth="yes"/>
      <point x="338" y="1199"/>
      <point x="105" y="870"/>
      <point x="105" y="551" type="curve" smooth="yes"/>
      <point x="105" y="244"/>
      <point x="316" y="-51"/>
    </contour>
    <contour>
      <point x="660" y="307" type="curve" smooth="yes"/>
      <point x="543" y="307"/>
      <point x="488" y="408"/>
      <point x="488" y="524" type="curve" smooth="yes"/>
      <point x="488" y="673"/>
      <point x="568" y="849"/>
      <point x="716" y="849" type="curve" smooth="yes"/>
      <point x="822" y="849"/>
      <point x="893" y="773"/>
      <point x="893" y="658" type="curve" smooth="yes"/>
      <point x="893" y="493"/>
      <point x="788" y="307"/>
    </contour>
  </outline>
</glyph>
<glyph name="A" format="1">
  <advance width="1305"/>
  <unicode hex="0041"/>
  <outline>
    <contour>
      <point x="662" y="1153" type="move" name="top"/>
    </contour>
    <contour>
      <point x="1023" y="0" type="move" name="ogonek"/>
    </contour>
    <contour>
      <point x="42" y="0" type="line"/>
      <point x="473" y="0" type="line"/>
      <point x="473" y="97" type="line"/>
      <point x="327" y="97" type="line"/>
      <point x="440" y="439" type="line"/>
      <point x="864" y="439" type="line"/>
      <point x="980" y="97" type="line"/>
      <point x="832" y="97" type="line"/>
      <point x="832" y="0" type="line"/>
      <point x="1264" y="0" type="line"/>
      <point x="1264" y="97" type="line"/>
      <point x="1118" y="97" type="line"/>
      <point x="774" y="1056" type="line"/>
      <point x="897" y="1056" type="line"/>
      <point x="897" y="1153" type="line"/>
      <point x="403" y="1153" type="line"/>
      <point x="403" y="1056" type="line"/>
      <point x="532" y="1056" type="line"/>
      <point x="189" y="97" type="line"/>
      <point x="42" y="97" type="line"/>
    </contour>
    <contour>
      <point x="467" y="539" type="line"/>
      <point x="647" y="1054" type="line"/>
      <point x="659" y="1054" type="line"/>
      <point x="841" y="539" type="line"/>
    </contour>
  </outline>
</glyph>
<glyph name="B" format="1">
  <advance width="1173"/>
  <unicode hex="0042"/>
  <outline>
    <contour>
      <point x="538" y="1153" type="move" name="top"/>
    </contour>
    <contour>
      <point x="313" y="0" type="line"/>
      <point x="636" y="0" type="line" smooth="yes"/>
      <point x="876" y="0"/>
      <point x="1043" y="115"/>
      <point x="1043" y="321" type="curve" smooth="yes"/>
      <point x="1043" y="465"/>
      <point x="957" y="567"/>
      <point x="824" y="608" type="curve"/>
      <point x="923" y="656"/>
      <point x="984" y="749"/>
      <point x="984" y="859" type="curve" smooth="yes"/>
      <point x="984" y="1042"/>
      <point x="844" y="1151"/>
      <point x="621" y="1153" type="curve" smooth="yes"/>
      <point x="303" y="1153" type="line"/>
      <point x="303" y="1056" type="line"/>
      <point x="595" y="1056" type="line" smooth="yes"/>
      <point x="764" y="1056"/>
      <point x="849" y="977"/>
      <point x="849" y="856" type="curve" smooth="yes"/>
      <point x="849" y="729"/>
      <point x="769" y="653"/>
      <point x="625" y="652" type="curve" smooth="yes"/>
      <point x="310" y="652" type="line"/>
      <point x="310" y="546" type="line"/>
      <point x="634" y="546" type="line" smooth="yes"/>
      <point x="802" y="546"/>
      <point x="907" y="457"/>
      <point x="907" y="328" type="curve" smooth="yes"/>
      <point x="907" y="188"/>
      <point x="816" y="97"/>
      <point x="635" y="97" type="curve" smooth="yes"/>
      <point x="313" y="97" type="line"/>
    </contour>
    <component base="uc_main_stem" xOffset="-26"/>
  </outline>
</glyph>
<glyph name="C" format="1">
  <advance width="1320"/>
  <unicode hex="0043"/>
  <outline>
    <contour>
      <point x="716" y="1153" type="move" name="top"/>
    </contour>
    <contour>
      <point x="699" y="0" type="move" name="bot"/>
    </contour>
    <contour>
      <point x="694" y="-20" type="curve" smooth="yes"/>
      <point x="951" y="-20"/>
      <point x="1134" y="99"/>
      <point x="1224" y="292" type="curve"/>
      <point x="1113" y="356" type="line"/>
      <point x="1041" y="176"/>
      <point x="894" y="92"/>
      <point x="692" y="92" type="curve" smooth="yes"/>
      <point x="416" y="92"/>
      <point x="249" y="308"/>
      <point x="249" y="580" type="curve" smooth="yes"/>
      <point x="249" y="849"/>
      <point x="425" y="1059"/>
      <point x="693" y="1059" type="curve" smooth="yes"/>
      <point x="890" y="1059"/>
      <point x="1025" y="962"/>
      <point x="1098" y="810" type="curve"/>
      <point x="1201" y="814" type="line"/>
      <point x="1201" y="1153" type="line"/>
      <point x="1091" y="1153" type="line"/>
      <point x="1091" y="1001" type="line"/>
      <point x="994" y="1114"/>
      <point x="859" y="1171"/>
      <point x="701" y="1171" type="curve" smooth="yes"/>
      <point x="356" y="1171"/>
      <point x="105" y="932"/>
      <point x="105" y="577" type="curve" smooth="yes"/>
      <point x="107" y="200"/>
      <point x="372" y="-20"/>
    </contour>
  </outline>
</glyph>
<glyph name="D" format="1">
  <advance width="1343"/>
  <unicode hex="0044"/>
  <outline>
    <contour>
      <point x="614" y="1153" type="move" name="top"/>
    </contour>
    <contour>
      <point x="317" y="591" type="move" name="mid"/>
    </contour>
    <contour>
      <point x="291" y="0" type="line"/>
      <point x="667" y="0" type="line" smooth="yes"/>
      <point x="1047" y="0"/>
      <point x="1237" y="228"/>
      <point x="1237" y="589" type="curve" smooth="yes"/>
      <point x="1237" y="930"/>
      <point x="1031" y="1153"/>
      <point x="676" y="1153" type="curve" smooth="yes"/>
      <point x="291" y="1153" type="line"/>
      <point x="291" y="1055" type="line"/>
      <point x="673" y="1055" type="line" smooth="yes"/>
      <point x="961" y="1055"/>
      <point x="1100" y="855"/>
      <point x="1100" y="579" type="curve" smooth="yes"/>
      <point x="1100" y="311"/>
      <point x="964" y="97"/>
      <point x="684" y="97" type="curve" smooth="yes"/>
      <point x="291" y="97" type="line"/>
    </contour>
    <component base="uc_main_stem" xOffset="-26"/>
  </outline>
</glyph>
<glyph name="E" format="1">
  <advance width="1184"/>
  <unicode hex="0045"/>
  <outline>
    <contour>
      <point x="611" y="1152" type="move" name="top"/>
    </contour>
    <contour>
      <point x="706" y="0" type="move" name="ogonek"/>
    </contour>
    <contour>
      <point x="757" y="405" type="line"/>
      <point x="845" y="405" type="line"/>
      <point x="845" y="769" type="line"/>
      <point x="757" y="769" type="line"/>
      <point x="757" y="644" type="line"/>
      <point x="306" y="644" type="line"/>
      <point x="308" y="536" type="line"/>
      <point x="757" y="536" type="line"/>
    </contour>
    <contour>
      <point x="302" y="0" type="line"/>
      <point x="1056" y="0" type="line"/>
      <point x="1056" y="336" type="line"/>
      <point x="946" y="336" type="line"/>
      <point x="946" y="97" type="line"/>
      <point x="302" y="97" type="line"/>
    </contour>
    <contour>
      <point x="938" y="813" type="line"/>
      <point x="1049" y="813" type="line"/>
      <point x="1049" y="1152" type="line"/>
      <point x="302" y="1152" type="line"/>
      <point x="302" y="1056" type="line"/>
      <point x="938" y="1054" type="line"/>
    </contour>
    <component base="uc_main_stem" xOffset="-26"/>
  </outline>
</glyph>
<glyph name="F" format="1">
  <advance width="1071"/>
  <unicode hex="0046"/>
  <outline>
    <contour>
      <point x="736" y="407" type="line"/>
      <point x="824" y="407" type="line"/>
      <point x="824" y="771" type="line"/>
      <point x="737" y="771" type="line"/>
      <point x="737" y="646" type="line"/>
      <point x="306" y="646" type="line"/>
      <point x="307" y="538" type="line"/>
      <point x="736" y="538" type="line"/>
    </contour>
    <contour>
      <point x="903" y="813" type="line"/>
      <point x="1014" y="813" type="line"/>
      <point x="1014" y="1153" type="line"/>
      <point x="301" y="1153" type="line"/>
      <point x="301" y="1056" type="line"/>
      <point x="903" y="1056" type="line"/>
    </contour>
    <component base="uc_main_stem" xOffset="-26"/>
  </outline>
</glyph>
<glyph name="G" format="1">
  <advance width="1370"/>
  <unicode hex="0047"/>
  <outline>
    <contour>
      <point x="694" y="1153" type="move" name="top"/>
    </contour>
    <contour>
      <point x="716" y="0" type="move" name="bot"/>
    </contour>
    <contour>
      <point x="711" y="-20" type="curve" smooth="yes"/>
      <point x="1036" y="-20"/>
      <point x="1261" y="150"/>
      <point x="1261" y="558" type="curve"/>
      <point x="892" y="558" type="line"/>
      <point x="892" y="453" type="line"/>
      <point x="1125" y="453" type="line"/>
      <point x="1119" y="205"/>
      <point x="943" y="92"/>
      <point x="715" y="92" type="curve" smooth="yes"/>
      <point x="429" y="92"/>
      <point x="255" y="306"/>
      <point x="255" y="577" type="curve" smooth="yes"/>
      <point x="255" y="848"/>
      <point x="435" y="1059"/>
      <point x="707" y="1059" type="curve" smooth="yes"/>
      <point x="899" y="1059"/>
      <point x="1033" y="966"/>
      <point x="1107" y="817" type="curve"/>
      <point x="1209" y="817" type="line"/>
      <point x="1209" y="1153" type="line"/>
      <point x="1099" y="1153" type="line"/>
      <point x="1099" y="1008" type="line"/>
      <point x="1001" y="1116"/>
      <point x="863" y="1171"/>
      <point x="698" y="1171" type="curve" smooth="yes"/>
      <point x="357" y="1171"/>
      <point x="111" y="922"/>
      <point x="111" y="577" type="curve" smooth="yes"/>
      <point x="111" y="191"/>
      <point x="389" y="-20"/>
    </contour>
  </outline>
</glyph>
<glyph name="J" format="1">
  <advance width="711"/>
  <unicode hex="004A"/>
  <outline>
    <contour>
      <point x="407" y="1152" type="move" name="top"/>
    </contour>
    <contour>
      <point x="108" y="-112" type="line"/>
      <point x="245" y="-112" type="line" smooth="yes"/>
      <point x="390" y="-114"/>
      <point x="469" y="-28"/>
      <point x="469" y="147" type="curve" smooth="yes"/>
      <point x="469" y="1056" type="line"/>
      <point x="614" y="1056" type="line"/>
      <point x="614" y="1152" type="line"/>
      <point x="188" y="1152" type="line"/>
      <point x="188" y="1056" type="line"/>
      <point x="334" y="1056" type="line"/>
      <point x="334" y="154" type="line" smooth="yes"/>
      <point x="334" y="50"/>
      <point x="315" y="0"/>
      <point x="228" y="0" type="curve" smooth="yes"/>
      <point x="108" y="0" type="line"/>
    </contour>
  </outline>
</glyph>
<glyph name="K" format="1">
  <advance width="1213"/>
  <unicode hex="004B"/>
  <outline>
    <contour>
      <point x="628" y="1153" type="move" name="top"/>
    </contour>
    <contour>
      <point x="626" y="0" type="move" name="bot"/>
    </contour>
    <contour>
      <point x="723" y="0" type="line"/>
      <point x="1178" y="0" type="line"/>
      <point x="1178" y="96" type="line"/>
      <point x="1045" y="96" type="line"/>
      <point x="514" y="590" type="line"/>
      <point x="1010" y="1057" type="line"/>
      <point x="1150" y="1057" type="line"/>
      <point x="1150" y="1153" type="line"/>
      <point x="715" y="1153" type="line"/>
      <point x="715" y="1057" type="line"/>
      <point x="853" y="1057" type="line"/>
      <point x="353" y="590" type="line"/>
      <point x="877" y="96" type="line"/>
      <point x="723" y="96" type="line"/>
    </contour>
    <component base="uc_main_stem" xOffset="-26"/>
  </outline>
</glyph>
<glyph name="L" format="1">
  <advance width="1017"/>
  <unicode hex="004C"/>
  <outline>
    <contour>
      <point x="627" y="1153" type="move" name="top"/>
    </contour>
    <contour>
      <point x="548" y="0" type="move" name="bot"/>
    </contour>
    <contour>
      <point x="301" y="0" type="line"/>
      <point x="962" y="0" type="line"/>
      <point x="962" y="430" type="line"/>
      <point x="841" y="430" type="line"/>
      <point x="841" y="97" type="line"/>
      <point x="301" y="97" type="line"/>
    </contour>
    <component base="uc_main_stem" xOffset="-26"/>
  </outline>
</glyph>
<glyph name="M" format="1">
  <advance width="1600"/>
  <unicode hex="004D"/>
  <outline>
    <contour>
      <point x="808" y="1153" type="move" name="top"/>
    </contour>
    <contour>
      <point x="91" y="0" type="line"/>
      <point x="493" y="0" type="line"/>
      <point x="493" y="97" type="line"/>
      <point x="354" y="97" type="line"/>
      <point x="354" y="1020" type="line"/>
      <point x="781" y="59" type="line"/>
      <point x="814" y="59" type="line"/>
      <point x="1237" y="1020" type="line"/>
      <point x="1237" y="97" type="line"/>
      <point x="1098" y="97" type="line"/>
      <point x="1098" y="0" type="line"/>
      <point x="1509" y="0" type="line"/>
      <point x="1509" y="97" type="line"/>
      <point x="1360" y="97" type="line"/>
      <point x="1360" y="1056" type="line"/>
      <point x="1509" y="1056" type="line"/>
      <point x="1509" y="1153" type="line"/>
      <point x="1169" y="1153" type="line"/>
      <point x="800" y="317" type="line"/>
      <point x="428" y="1153" type="line"/>
      <point x="91" y="1153" type="line"/>
      <point x="91" y="1056" type="line"/>
      <point x="240" y="1056" type="line"/>
      <point x="240" y="97" type="line"/>
      <point x="91" y="97" type="line"/>
    </contour>
  </outline>
</glyph>
<glyph name="N" format="1">
  <advance width="1388"/>
  <unicode hex="004E"/>
  <outline>
    <contour>
      <point x="691" y="1153" type="move" name="top"/>
    </contour>
    <contour>
      <point x="716" y="0" type="move" name="bot"/>
    </contour>
    <contour>
      <point x="91" y="0" type="line"/>
      <point x="531" y="0" type="line"/>
      <point x="531" y="97" type="line"/>
      <point x="368" y="97" type="line"/>
      <point x="368" y="1011" type="line"/>
      <point x="1017" y="0" type="line"/>
      <point x="1163" y="0" type="line"/>
      <point x="1163" y="1056" type="line"/>
      <point x="1324" y="1056" type="line"/>
      <point x="1324" y="1153" type="line"/>
      <point x="889" y="1153" type="line"/>
      <point x="889" y="1056" type="line"/>
      <point x="1049" y="1056" type="line"/>
      <point x="1049" y="180" type="line"/>
      <point x="421" y="1153" type="line"/>
      <point x="91" y="1153" type="line"/>
      <point x="91" y="1056" type="line"/>
      <point x="254" y="1056" type="line"/>
      <point x="254" y="97" type="line"/>
      <point x="91" y="97" type="line"/>
    </contour>
  </outline>
</glyph>
<glyph name="O" format="1">
  <advance width="1406"/>
  <unicode hex="004F"/>
  <outline>
    <contour>
      <point x="700" y="1153" type="move" name="top"/>
    </contour>
    <contour>
      <point x="758" y="0" type="move" name="ogonek"/>
    </contour>
    <contour>
      <point x="702" y="92" type="curve" smooth="yes"/>
      <point x="423" y="92"/>
      <point x="251" y="305"/>
      <point x="251" y="575" type="curve" smooth="yes"/>
      <point x="251" y="842"/>
      <point x="424" y="1059"/>
      <point x="702" y="1059" type="curve" smooth="yes"/>
      <point x="980" y="1059"/>
      <point x="1154" y="842"/>
      <point x="1154" y="575" type="curve" smooth="yes"/>
      <point x="1154" y="308"/>
      <point x="980" y="92"/>
    </contour>
    <contour>
      <point x="702" y="-20" type="curve" smooth="yes"/>
      <point x="1069" y="-20"/>
      <point x="1299" y="247"/>
      <point x="1299" y="574" type="curve" smooth="yes"/>
      <point x="1299" y="907"/>
      <point x="1070" y="1171"/>
      <point x="701" y="1171" type="curve" smooth="yes"/>
      <point x="334" y="1171"/>
      <point x="107" y="906"/>
      <point x="107" y="574" type="curve" smooth="yes"/>
      <point x="107" y="244"/>
      <point x="335" y="-18"/>
    </contour>
  </outline>
</glyph>
<glyph name="Q" format="1">
  <advance width="1414"/>
  <unicode hex="0051"/>
  <outline>
    <contour>
      <point x="1031" y="-221" type="curve" smooth="yes"/>
      <point x="1090" y="-221"/>
      <point x="1145" y="-209"/>
      <point x="1202" y="-188" type="curve"/>
      <point x="1165" y="-88" type="line"/>
      <point x="1127" y="-100"/>
      <point x="1082" y="-113"/>
      <point x="1030" y="-113" type="curve" smooth="yes"/>
      <point x="950" y="-113"/>
      <point x="853" y="-53"/>
      <point x="761" y="33" type="curve"/>
      <point x="588" y="36" type="line"/>
      <point x="764" y="-129"/>
      <point x="899" y="-221"/>
    </contour>
    <component base="O"/>
  </outline>
</glyph>
<glyph name="R" format="1">
  <advance width="1197"/>
  <unicode hex="0052"/>
  <outline>
    <contour>
      <point x="584" y="1152" type="move" name="top"/>
    </contour>
    <contour>
      <point x="677" y="0" type="move" name="bot"/>
    </contour>
    <contour>
      <point x="903" y="0" type="line"/>
      <point x="1144" y="0" type="line"/>
      <point x="1144" y="97" type="line"/>
      <point x="992" y="97" type="line"/>
      <point x="738" y="552" type="line"/>
      <point x="928" y="574"/>
      <point x="1024" y="693"/>
      <point x="1024" y="853" type="curve" smooth="yes"/>
      <point x="1024" y="1045"/>
      <point x="889" y="1152"/>
      <point x="658" y="1152" type="curve" smooth="yes"/>
      <point x="300" y="1152" type="line"/>
      <point x="300" y="1056" type="line"/>
      <point x="650" y="1056" type="line" smooth="yes"/>
      <point x="794" y="1056"/>
      <point x="888" y="976"/>
      <point x="888" y="853" type="curve" smooth="yes"/>
      <point x="888" y="725"/>
      <point x="807" y="638"/>
      <point x="654" y="638" type="curve" smooth="yes"/>
      <point x="441" y="638" type="line"/>
      <point x="441" y="538" type="line"/>
      <point x="608" y="538" type="line"/>
    </contour>
    <component base="uc_main_stem" xOffset="-26"/>
  </outline>
</glyph>
<glyph name="U" format="1">
  <advance width="1356"/>
  <unicode hex="0055"/>
  <outline>
    <contour>
      <point x="691" y="1153" type="move" name="top"/>
    </contour>
    <contour>
      <point x="771" y="0" type="move" name="ogonek"/>
    </contour>
    <contour>
      <point x="685" y="-20" type="curve" smooth="yes"/>
      <point x="952" y="-20"/>
      <point x="1141" y="108"/>
      <point x="1141" y="379" type="curve" smooth="yes"/>
      <point x="1141" y="1056" type="line"/>
      <point x="1277" y="1056" type="line"/>
      <point x="1277" y="1153" type="line"/>
      <point x="863" y="1153" type="line"/>
      <point x="863" y="1056" type="line"/>
      <point x="1008" y="1056" type="line"/>
      <point x="1008" y="385" type="line" smooth="yes"/>
      <point x="1008" y="187"/>
      <point x="888" y="92"/>
      <point x="689" y="92" type="curve" smooth="yes"/>
      <point x="502" y="92"/>
      <point x="363" y="181"/>
      <point x="363" y="378" type="curve" smooth="yes"/>
      <point x="363" y="1056" type="line"/>
      <point x="508" y="1056" type="line"/>
      <point x="508" y="1153" type="line"/>
      <point x="85" y="1153" type="line"/>
      <point x="85" y="1056" type="line"/>
      <point x="230" y="1056" type="line"/>
      <point x="230" y="380" type="line" smooth="yes"/>
      <point x="230" y="114"/>
      <point x="428" y="-20"/>
    </contour>
  </outline>
</glyph>
<glyph name="V" format="1">
  <advance width="1309"/>
  <unicode hex="0056"/>
  <outline>
    <contour>
      <point x="594" y="0" type="line"/>
      <point x="723" y="0" type="line"/>
      <point x="1127" y="1056" type="line"/>
      <point x="1267" y="1056" type="line"/>
      <point x="1267" y="1153" type="line"/>
      <point x="848" y="1153" type="line"/>
      <point x="848" y="1056" type="line"/>
      <point x="993" y="1056" type="line"/>
      <point x="662" y="154" type="line"/>
      <point x="328" y="1056" type="line"/>
      <point x="473" y="1056" type="line"/>
      <point x="473" y="1153" type="line"/>
      <point x="44" y="1153" type="line"/>
      <point x="44" y="1056" type="line"/>
      <point x="188" y="1056" type="line"/>
    </contour>
  </outline>
</glyph>
<glyph name="W" format="1">
  <advance width="1896"/>
  <unicode hex="0057"/>
  <outline>
    <contour>
      <point x="958" y="1152" type="move" name="top"/>
    </contour>
    <contour>
      <point x="526" y="0" type="line"/>
      <point x="659" y="0" type="line"/>
      <point x="949" y="957" type="line"/>
      <point x="1246" y="0" type="line"/>
      <point x="1379" y="0" type="line"/>
      <point x="1695" y="1056" type="line"/>
      <point x="1838" y="1056" type="line"/>
      <point x="1838" y="1153" type="line"/>
      <point x="1428" y="1153" type="line"/>
      <point x="1428" y="1056" type="line"/>
      <point x="1564" y="1056" type="line"/>
      <point x="1316" y="171" type="line"/>
      <point x="1033" y="1103" type="line"/>
      <point x="873" y="1103" type="line"/>
      <point x="596" y="171" type="line"/>
      <point x="334" y="1056" type="line"/>
      <point x="477" y="1056" type="line"/>
      <point x="477" y="1153" type="line"/>
      <point x="58" y="1153" type="line"/>
      <point x="58" y="1056" type="line"/>
      <point x="199" y="1056" type="line"/>
    </contour>
  </outline>
</glyph>
<glyph name="X" format="1">
  <advance width="1240"/>
  <unicode hex="0058"/>
  <outline>
    <contour>
      <point x="60" y="0" type="line"/>
      <point x="498" y="0" type="line"/>
      <point x="498" y="97" type="line"/>
      <point x="351" y="97" type="line"/>
      <point x="614" y="490" type="line"/>
      <point x="880" y="97" type="line"/>
      <point x="736" y="97" type="line"/>
      <point x="736" y="0" type="line"/>
      <point x="1181" y="0" type="line"/>
      <point x="1181" y="97" type="line"/>
      <point x="1025" y="97" type="line"/>
      <point x="685" y="593" type="line"/>
      <point x="1001" y="1056" type="line"/>
      <point x="1153" y="1056" type="line"/>
      <point x="1153" y="1153" type="line"/>
      <point x="726" y="1153" type="line"/>
      <point x="726" y="1056" type="line"/>
      <point x="870" y="1056" type="line"/>
      <point x="618" y="687" type="line"/>
      <point x="368" y="1056" type="line"/>
      <point x="509" y="1056" type="line"/>
      <point x="509" y="1153" type="line"/>
      <point x="71" y="1153" type="line"/>
      <point x="71" y="1056" type="line"/>
      <point x="225" y="1056" type="line"/>
      <point x="547" y="586" type="line"/>
      <point x="217" y="97" type="line"/>
      <point x="60" y="97" type="line"/>
    </contour>
  </outline>
</glyph>
<glyph name="Y" format="1">
  <advance width="1265"/>
  <unicode hex="0059"/>
  <outline>
    <contour>
      <point x="653" y="1153" type="move" name="top"/>
    </contour>
    <contour>
      <point x="418" y="0" type="line"/>
      <point x="866" y="0" type="line"/>
      <point x="866" y="97" type="line"/>
      <point x="706" y="97" type="line"/>
      <point x="706" y="489" type="line"/>
      <point x="1072" y="1056" type="line"/>
      <point x="1225" y="1056" type="line"/>
      <point x="1225" y="1153" type="line"/>
      <point x="792" y="1153" type="line"/>
      <point x="792" y="1056" type="line"/>
      <point x="942" y="1056" type="line"/>
      <point x="649" y="590" type="line"/>
      <point x="343" y="1056" type="line"/>
      <point x="492" y="1056" type="line"/>
      <point x="492" y="1153" type="line"/>
      <point x="49" y="1153" type="line"/>
      <point x="49" y="1056" type="line"/>
      <point x="198" y="1056" type="line"/>
      <point x="574" y="489" type="line"/>
      <point x="574" y="97" type="line"/>
      <point x="418" y="97" type="line"/>
    </contour>
  </outline>
</glyph>
<glyph name="Z" format="1">
  <advance width="1182"/>
  <unicode hex="005A"/>
  <outline>
    <contour>
      <point x="627" y="1153" type="move" name="top"/>
    </contour>
    <contour>
      <point x="146" y="0" type="line"/>
      <point x="1040" y="0" type="line"/>
      <point x="1040" y="341" type="line"/>
      <point x="930" y="341" type="line"/>
      <point x="930" y="99" type="line"/>
      <point x="302" y="99" type="line"/>
      <point x="1022" y="1053" type="line"/>
      <point x="1022" y="1153" type="line"/>
      <point x="172" y="1153" type="line"/>
      <point x="172" y="816" type="line"/>
      <point x="282" y="816" type="line"/>
      <point x="282" y="1053" type="line"/>
      <point x="857" y="1053" type="line"/>
      <point x="146" y="115" type="line"/>
    </contour>
  </outline>
</glyph>
<glyph name="bracketleft" format="1">
  <advance width="509"/>
  <unicode hex="005B"/>
  <outline>
    <contour>
      <point x="137" y="-174" type="line"/>
      <point x="476" y="-174" type="line"/>
      <point x="476" y="-83" type="line"/>
      <point x="258" y="-83" type="line"/>
      <point x="258" y="1126" type="line"/>
      <point x="476" y="1126" type="line"/>
      <point x="476" y="1218" type="line"/>
      <point x="137" y="1218" type="line"/>
    </contour>
  </outline>
</glyph>
<glyph name="backslash" format="1">
  <advance width="675"/>
  <unicode hex="005C"/>
  <outline>
    <contour>
      <point x="494" y="-20" type="line"/>
      <point x="603" y="-20" type="line"/>
      <point x="198" y="1171" type="line"/>
      <point x="90" y="1171" type="line"/>
    </contour>
  </outline>
</glyph>
<glyph name="bracketright" format="1">
  <advance width="509"/>
  <unicode hex="005D"/>
  <outline>
    <contour>
      <point x="49" y="-174" type="line"/>
      <point x="387" y="-174" type="line"/>
      <point x="387" y="1218" type="line"/>
      <point x="49" y="1218" type="line"/>
      <point x="49" y="1126" type="line"/>
      <point x="266" y="1126" type="line"/>
      <point x="266" y="-83" type="line"/>
      <point x="49" y="-83" type="line"/>
    </contour>
  </outline>
</glyph>
<glyph name="grave" format="1">
  <advance width="440"/>
  <unicode hex="0060"/>
  <outline>
    <contour>
      <point x="286" y="805" type="move" name="_top"/>
    </contour>
    <contour>
      <point x="242" y="910" type="line"/>
      <point x="332" y="910" type="line"/>
      <point x="246" y="1165" type="line"/>
      <point x="66" y="1165" type="line"/>
    </contour>
  </outline>
</glyph>
<glyph name="a" format="1">
  <advance width="924"/>
  <unicode hex="0061"/>
  <outline>
    <contour>
      <point x="449" y="804" type="move" name="top"/>
    </contour>
    <contour>
      <point x="743" y="0" type="move" name="ogonek"/>
    </contour>
    <contour>
      <point x="357" y="-20" type="curve" smooth="yes"/>
      <point x="446" y="-20"/>
      <point x="567" y="16"/>
      <point x="643" y="90" type="curve"/>
      <point x="643" y="90"/>
      <point x="650" y="14"/>
      <point x="650" y="0" type="curve"/>
      <point x="889" y="0" type="line"/>
      <point x="889" y="96" type="line"/>
      <point x="759" y="96" type="line"/>
      <point x="759" y="548" type="line" smooth="yes"/>
      <point x="759" y="722"/>
      <point x="629" y="826"/>
      <point x="441" y="826" type="curve" smooth="yes"/>
      <point x="340" y="826"/>
      <point x="232" y="793"/>
      <point x="133" y="740" type="curve"/>
      <point x="173" y="655" type="line"/>
      <point x="263" y="698"/>
      <point x="357" y="724"/>
      <point x="438" y="724" type="curve" smooth="yes"/>
      <point x="551" y="724"/>
      <point x="634" y="674"/>
      <point x="634" y="553" type="curve" smooth="yes"/>
      <point x="634" y="441" type="line"/>
      <point x="558" y="456"/>
      <point x="482" y="466"/>
      <point x="412" y="466" type="curve" smooth="yes"/>
      <point x="222" y="466"/>
      <point x="90" y="403"/>
      <point x="90" y="209" type="curve" smooth="yes"/>
      <point x="90" y="70"/>
      <point x="210" y="-20"/>
    </contour>
    <contour>
      <point x="369" y="76" type="curve" smooth="yes"/>
      <point x="272" y="76"/>
      <point x="209" y="137"/>
      <point x="209" y="219" type="curve" smooth="yes"/>
      <point x="209" y="346"/>
      <point x="297" y="380"/>
      <point x="429" y="380" type="curve" smooth="yes"/>
      <point x="492" y="380"/>
      <point x="588" y="368"/>
      <point x="634" y="360" type="curve"/>
      <point x="634" y="169" type="line"/>
      <point x="553" y="106"/>
      <point x="464" y="76"/>
    </contour>
  </outline>
</glyph>
<glyph name="c" format="1">
  <advance width="943"/>
  <unicode hex="0063"/>
  <outline>
    <contour>
      <point x="483" y="805" type="move" name="top"/>
    </contour>
    <contour>
      <point x="483" y="0" type="move" name="bot"/>
    </contour>
    <contour>
      <point x="483" y="-17" type="curve" smooth="yes"/>
      <point x="630" y="-17"/>
      <point x="760" y="40"/>
      <point x="848" y="152" type="curve"/>
      <point x="781" y="233" type="line"/>
      <point x="704" y="135"/>
      <point x="610" y="86"/>
      <point x="479" y="88" type="curve" smooth="yes"/>
      <point x="312" y="92"/>
      <point x="196" y="219"/>
      <point x="196" y="402" type="curve" smooth="yes"/>
      <point x="196" y="597"/>
      <point x="330" y="716"/>
      <point x="483" y="716" type="curve" smooth="yes"/>
      <point x="617" y="716"/>
      <point x="702" y="649"/>
      <point x="725" y="535" type="curve"/>
      <point x="833" y="535" type="line"/>
      <point x="833" y="811" type="line"/>
      <point x="720" y="811" type="line"/>
      <point x="722" y="713" type="line"/>
      <point x="680" y="783"/>
      <point x="572" y="820"/>
      <point x="476" y="820" type="curve" smooth="yes"/>
      <point x="255" y="820"/>
      <point x="65" y="658"/>
      <point x="65" y="407" type="curve" smooth="yes"/>
      <point x="65" y="157"/>
      <point x="243" y="-17"/>
    </contour>
  </outline>
</glyph>
<glyph name="e" format="1">
  <advance width="951"/>
  <unicode hex="0065"/>
  <outline>
    <contour>
      <point x="475" y="804" type="move" name="top"/>
    </contour>
    <contour>
      <point x="571" y="0" type="move" name="ogonek"/>
    </contour>
    <contour>
      <point x="493" y="-17" type="curve" smooth="yes"/>
      <point x="648" y="-17"/>
      <point x="754" y="34"/>
      <point x="845" y="138" type="curve"/>
      <point x="783" y="215" type="line"/>
      <point x="699" y="121"/>
      <point x="605" y="88"/>
      <point x="494" y="88" type="curve" smooth="yes"/>
      <point x="322" y="89"/>
      <point x="212" y="190"/>
      <point x="201" y="371" type="curve"/>
      <point x="870" y="371" type="line"/>
      <point x="868" y="652"/>
      <point x="722" y="820"/>
      <point x="484" y="820" type="curve" smooth="yes"/>
      <point x="254" y="820"/>
      <point x="65" y="656"/>
      <point x="65" y="402" type="curve" smooth="yes"/>
      <point x="65" y="147"/>
      <point x="249" y="-17"/>
    </contour>
    <contour>
      <point x="202" y="459" type="line"/>
      <point x="224" y="622"/>
      <point x="334" y="715"/>
      <point x="489" y="715" type="curve" smooth="yes"/>
      <point x="636" y="715"/>
      <point x="733" y="618"/>
      <point x="751" y="459" type="curve"/>
    </contour>
  </outline>
</glyph>
<glyph name="f" format="1">
  <advance width="644"/>
  <unicode hex="0066"/>
  <outline>
    <contour>
      <point x="88" y="0" type="line"/>
      <point x="525" y="0" type="line"/>
      <point x="525" y="97" type="line"/>
      <point x="355" y="97" type="line"/>
      <point x="355" y="709" type="line"/>
      <point x="536" y="709" type="line"/>
      <point x="536" y="804" type="line"/>
      <point x="355" y="804" type="line"/>
      <point x="355" y="959" type="line" smooth="yes"/>
      <point x="355" y="1037"/>
      <point x="406" y="1078"/>
      <point x="465" y="1078" type="curve" smooth="yes"/>
      <point x="513" y="1078"/>
      <point x="554" y="1054"/>
      <point x="570" y="983" type="curve"/>
      <point x="661" y="1012" type="line"/>
      <point x="641" y="1128"/>
      <point x="571" y="1176"/>
      <point x="458" y="1176" type="curve" smooth="yes"/>
      <point x="330" y="1176"/>
      <point x="231" y="1097"/>
      <point x="231" y="964" type="curve" smooth="yes"/>
      <point x="231" y="804" type="line"/>
      <point x="96" y="804" type="line"/>
      <point x="96" y="709" type="line"/>
      <point x="231" y="709" type="line"/>
      <point x="231" y="97" type="line"/>
      <point x="88" y="97" type="line"/>
    </contour>
  </outline>
</glyph>
<glyph name="g" format="1">
  <advance width="1034"/>
  <unicode hex="0067"/>
  <outline>
    <contour>
      <point x="504" y="805" type="move" name="top"/>
    </contour>
    <contour>
      <point x="468" y="-376" type="curve" smooth="yes"/>
      <point x="687" y="-376"/>
      <point x="859" y="-277"/>
      <point x="859" y="-44" type="curve" smooth="yes"/>
      <point x="859" y="709" type="line"/>
      <point x="1012" y="709" type="line"/>
      <point x="1012" y="804" type="line"/>
      <point x="735" y="804" type="line"/>
      <point x="735" y="-66" type="line" smooth="yes"/>
      <point x="735" y="-207"/>
      <point x="621" y="-272"/>
      <point x="464" y="-272" type="curve" smooth="yes"/>
      <point x="383" y="-272"/>
      <point x="293" y="-255"/>
      <point x="208" y="-225" type="curve"/>
      <point x="181" y="-327" type="line"/>
      <point x="278" y="-359"/>
      <point x="377" y="-376"/>
    </contour>
    <component base="lc_bowl_left" yScale="0.98" xOffset="-66" yOffset="15"/>
  </outline>
</glyph>
<glyph name="i" format="1">
  <advance width="562"/>
  <unicode hex="0069"/>
  <outline>
    <contour>
      <point x="325" y="0" type="move" name="ogonek"/>
    </contour>
    <contour>
      <point x="88" y="0" type="line"/>
      <point x="528" y="0" type="line"/>
      <point x="528" y="97" type="line"/>
      <point x="377" y="97" type="line"/>
      <point x="377" y="636" type="line"/>
      <point x="377" y="804" type="line"/>
      <point x="86" y="804" type="line"/>
      <point x="86" y="708" type="line"/>
      <point x="253" y="708" type="line"/>
      <point x="253" y="97" type="line"/>
      <point x="88" y="97" type="line"/>
    </contour>
    <contour>
      <point x="312" y="996" type="curve" smooth="yes"/>
      <point x="362" y="996"/>
      <point x="394" y="1029"/>
      <point x="394" y="1074" type="curve" smooth="yes"/>
      <point x="394" y="1120"/>
      <point x="362" y="1152"/>
      <point x="312" y="1152" type="curve"/>
      <point x="258" y="1152"/>
      <point x="228" y="1120"/>
      <point x="228" y="1074" type="curve" smooth="yes"/>
      <point x="228" y="1029"/>
      <point x="258" y="996"/>
    </contour>
  </outline>
</glyph>
<glyph name="j" format="1">
  <advance width="489"/>
  <unicode hex="006A"/>
  <outline>
    <contour>
      <point x="24" y="-288" type="line"/>
      <point x="110" y="-288" type="line" smooth="yes"/>
      <point x="326" y="-288"/>
      <point x="367" y="-192"/>
      <point x="367" y="6" type="curve" smooth="yes"/>
      <point x="367" y="804" type="line"/>
      <point x="58" y="804" type="line"/>
      <point x="58" y="709" type="line"/>
      <point x="243" y="709" type="line"/>
      <point x="243" y="-15" type="line" smooth="yes"/>
      <point x="243" y="-122"/>
      <point x="231" y="-186"/>
      <point x="120" y="-186" type="curve" smooth="yes"/>
      <point x="24" y="-186" type="line"/>
    </contour>
    <contour>
      <point x="299" y="996" type="curve" smooth="yes"/>
      <point x="348" y="996"/>
      <point x="382" y="1031"/>
      <point x="382" y="1074" type="curve" smooth="yes"/>
      <point x="382" y="1118"/>
      <point x="348" y="1153"/>
      <point x="299" y="1153" type="curve" smooth="yes"/>
      <point x="251" y="1153"/>
      <point x="216" y="1118"/>
      <point x="216" y="1074" type="curve" smooth="yes"/>
      <point x="216" y="1031"/>
      <point x="251" y="996"/>
    </contour>
  </outline>
</glyph>
<glyph name="k" format="1">
  <advance width="1012"/>
  <unicode hex="006B"/>
  <outline>
    <contour>
      <point x="528" y="0" type="move" name="bot"/>
    </contour>
    <contour>
      <point x="743" y="0" type="line"/>
      <point x="980" y="0" type="line"/>
      <point x="980" y="97" type="line"/>
      <point x="795" y="97" type="line"/>
      <point x="467" y="416" type="line"/>
      <point x="822" y="708" type="line"/>
      <point x="962" y="708" type="line"/>
      <point x="962" y="804" type="line"/>
      <point x="538" y="804" type="line"/>
      <point x="538" y="708" type="line"/>
      <point x="672" y="708" type="line"/>
      <point x="318" y="418" type="line"/>
    </contour>
    <component base="lc_ascender_stem" xOffset="-23"/>
  </outline>
</glyph>
<glyph name="o" format="1">
  <advance width="985"/>
  <unicode hex="006F"/>
  <outline>
    <contour>
      <point x="491" y="804" type="move" name="top"/>
    </contour>
    <contour>
      <point x="491" y="82" type="curve" smooth="yes"/>
      <point x="318" y="83"/>
      <point x="196" y="216"/>
      <point x="196" y="403" type="curve" smooth="yes"/>
      <point x="196" y="590"/>
      <point x="318" y="722"/>
      <point x="491" y="722" type="curve" smooth="yes"/>
      <point x="666" y="722"/>
      <point x="790" y="590"/>
      <point x="790" y="403" type="curve" smooth="yes"/>
      <point x="790" y="216"/>
      <point x="666" y="83"/>
    </contour>
    <contour>
      <point x="491" y="-22" type="curve" smooth="yes"/>
      <point x="742" y="-22"/>
      <point x="920" y="154"/>
      <point x="920" y="403" type="curve" smooth="yes"/>
      <point x="920" y="651"/>
      <point x="743" y="826"/>
      <point x="492" y="826" type="curve" smooth="yes"/>
      <point x="242" y="826"/>
      <point x="65" y="652"/>
      <point x="65" y="406" type="curve" smooth="yes"/>
      <point x="65" y="155"/>
      <point x="242" y="-22"/>
    </contour>
  </outline>
</glyph>
<glyph name="q" format="1">
  <advance width="1070"/>
  <unicode hex="0071"/>
  <outline>
    <contour>
      <point x="586" y="-309" type="line"/>
      <point x="1015" y="-309" type="line"/>
      <point x="1015" y="-207" type="line"/>
      <point x="866" y="-207" type="line"/>
      <point x="866" y="703" type="line"/>
      <point x="1004" y="703" type="line"/>
      <point x="1004" y="799" type="line"/>
      <point x="749" y="799" type="line"/>
      <point x="742" y="690" type="line"/>
      <point x="742" y="-207" type="line"/>
      <point x="586" y="-207" type="line"/>
    </contour>
    <component base="lc_bowl_left" xOffset="-66"/>
  </outline>
</glyph>
<glyph name="r" format="1">
  <advance width="733"/>
  <unicode hex="0072"/>
  <outline>
    <contour>
      <point x="376" y="805" type="move" name="top"/>
    </contour>
    <contour>
      <point x="300" y="0" type="move" name="bot"/>
    </contour>
    <contour>
      <point x="358" y="436" type="line"/>
      <point x="358" y="596"/>
      <point x="434" y="713"/>
      <point x="555" y="713" type="curve" smooth="yes"/>
      <point x="594" y="713"/>
      <point x="642" y="699"/>
      <point x="689" y="673" type="curve"/>
      <point x="712" y="773" type="line"/>
      <point x="658" y="801"/>
      <point x="607" y="815"/>
      <point x="562" y="815" type="curve" smooth="yes"/>
      <point x="458" y="815"/>
      <point x="379" y="742"/>
      <point x="340" y="587" type="curve"/>
    </contour>
    <component base="lc_xheight_stem" xOffset="-45"/>
  </outline>
</glyph>
<glyph name="s" format="1">
  <advance width="839"/>
  <unicode hex="0073"/>
  <outline>
    <contour>
      <point x="396" y="805" type="move" name="top"/>
    </contour>
    <contour>
      <point x="460" y="0" type="move" name="bot"/>
    </contour>
    <contour>
      <point x="464" y="-17" type="curve" smooth="yes"/>
      <point x="617" y="-17"/>
      <point x="764" y="52"/>
      <point x="764" y="222" type="curve" smooth="yes"/>
      <point x="764" y="384"/>
      <point x="659" y="427"/>
      <point x="488" y="465" type="curve" smooth="yes"/>
      <point x="384" y="488" type="line" smooth="yes"/>
      <point x="291" y="508"/>
      <point x="227" y="523"/>
      <point x="229" y="610" type="curve" smooth="yes"/>
      <point x="231" y="689"/>
      <point x="304" y="733"/>
      <point x="403" y="733" type="curve" smooth="yes"/>
      <point x="482" y="733"/>
      <point x="569" y="700"/>
      <point x="616" y="653" type="curve"/>
      <point x="627" y="556" type="line"/>
      <point x="719" y="556" type="line"/>
      <point x="719" y="804" type="line"/>
      <point x="611" y="804" type="line"/>
      <point x="611" y="753" type="line"/>
      <point x="560" y="795"/>
      <point x="478" y="826"/>
      <point x="393" y="826" type="curve" smooth="yes"/>
      <point x="255" y="826"/>
      <point x="106" y="761"/>
      <point x="106" y="604" type="curve" smooth="yes"/>
      <point x="106" y="474"/>
      <point x="197" y="418"/>
      <point x="333" y="389" type="curve" smooth="yes"/>
      <point x="450" y="365" type="line" smooth="yes"/>
      <point x="597" y="333"/>
      <point x="647" y="308"/>
      <point x="646" y="213" type="curve"/>
      <point x="642" y="121"/>
      <point x="556" y="79"/>
      <point x="458" y="79" type="curve" smooth="yes"/>
      <point x="363" y="79"/>
      <point x="261" y="114"/>
      <point x="214" y="181" type="curve"/>
      <point x="207" y="280" type="line"/>
      <point x="108" y="280" type="line"/>
      <point x="108" y="0" type="line"/>
      <point x="217" y="0" type="line"/>
      <point x="217" y="69" type="line"/>
      <point x="279" y="16"/>
      <point x="369" y="-17"/>
    </contour>
  </outline>
</glyph>
<glyph name="t" format="1">
  <advance width="582"/>
  <unicode hex="0074"/>
  <outline>
    <contour>
      <point x="367" y="7" type="move" name="bot"/>
    </contour>
    <contour>
      <point x="406" y="0" type="curve" smooth="yes"/>
      <point x="533" y="0" type="line"/>
      <point x="533" y="97" type="line"/>
      <point x="421" y="97" type="line" smooth="yes"/>
      <point x="318" y="97"/>
      <point x="293" y="156"/>
      <point x="293" y="269" type="curve" smooth="yes"/>
      <point x="293" y="709" type="line"/>
      <point x="505" y="709" type="line"/>
      <point x="511" y="804" type="line"/>
      <point x="293" y="804" type="line"/>
      <point x="293" y="1095" type="line"/>
      <point x="169" y="1068" type="line"/>
      <point x="169" y="804" type="line"/>
      <point x="36" y="804" type="line"/>
      <point x="36" y="709" type="line"/>
      <point x="169" y="709" type="line"/>
      <point x="169" y="280" type="line" smooth="yes"/>
      <point x="169" y="104"/>
      <point x="214" y="0"/>
    </contour>
  </outline>
</glyph>
<glyph name="u" format="1">
  <advance width="998"/>
  <unicode hex="0075"/>
  <outline>
    <contour>
      <point x="475" y="804" type="move" name="top"/>
    </contour>
    <contour>
      <point x="808" y="0" type="move" name="ogonek"/>
    </contour>
    <contour>
      <point x="419" y="-16" type="curve" smooth="yes"/>
      <point x="525" y="-16"/>
      <point x="607" y="22"/>
      <point x="706" y="100" type="curve"/>
      <point x="711" y="0" type="line"/>
      <point x="976" y="0" type="line"/>
      <point x="976" y="96" type="line"/>
      <point x="828" y="96" type="line"/>
      <point x="828" y="804" type="line"/>
      <point x="555" y="804" type="line"/>
      <point x="555" y="708" type="line"/>
      <point x="704" y="708" type="line"/>
      <point x="704" y="222" type="line"/>
      <point x="622" y="139"/>
      <point x="542" y="88"/>
      <point x="440" y="88" type="curve" smooth="yes"/>
      <point x="331" y="88"/>
      <point x="283" y="151"/>
      <point x="283" y="255" type="curve" smooth="yes"/>
      <point x="283" y="804" type="line"/>
      <point x="18" y="804" type="line"/>
      <point x="18" y="708" type="line"/>
      <point x="159" y="708" type="line"/>
      <point x="159" y="246" type="line" smooth="yes"/>
      <point x="159" y="87"/>
      <point x="243" y="-16"/>
    </contour>
  </outline>
</glyph>
<glyph name="v" format="1">
  <advance width="985"/>
  <unicode hex="0076"/>
  <outline>
    <contour>
      <point x="444" y="0" type="line"/>
      <point x="563" y="0" type="line"/>
      <point x="849" y="708" type="line"/>
      <point x="985" y="708" type="line"/>
      <point x="985" y="804" type="line"/>
      <point x="591" y="804" type="line"/>
      <point x="591" y="708" type="line"/>
      <point x="721" y="708" type="line"/>
      <point x="502" y="131" type="line"/>
      <point x="268" y="708" type="line"/>
      <point x="403" y="708" type="line"/>
      <point x="403" y="804" type="line"/>
      <point x="1" y="804" type="line"/>
      <point x="1" y="708" type="line"/>
      <point x="137" y="708" type="line"/>
    </contour>
  </outline>
</glyph>
<glyph name="w" format="1">
  <advance width="1457"/>
  <unicode hex="0077"/>
  <outline>
    <contour>
      <point x="734" y="805" type="move" name="top"/>
    </contour>
    <contour>
      <point x="385" y="0" type="line"/>
      <point x="509" y="0" type="line"/>
      <point x="735" y="642" type="line"/>
      <point x="956" y="0" type="line"/>
      <point x="1080" y="0" type="line"/>
      <point x="1325" y="708" type="line"/>
      <point x="1451" y="708" type="line"/>
      <point x="1451" y="804" type="line"/>
      <point x="1081" y="804" type="line"/>
      <point x="1081" y="708" type="line"/>
      <point x="1207" y="708" type="line"/>
      <point x="1019" y="118" type="line"/>
      <point x="808" y="708" type="line"/>
      <point x="925" y="708" type="line"/>
      <point x="925" y="804" type="line"/>
      <point x="538" y="804" type="line"/>
      <point x="538" y="708" type="line"/>
      <point x="653" y="708" type="line"/>
      <point x="445" y="125" type="line"/>
      <point x="255" y="708" type="line"/>
      <point x="378" y="708" type="line"/>
      <point x="378" y="804" type="line"/>
      <point x="6" y="804" type="line"/>
      <point x="6" y="708" type="line"/>
      <point x="137" y="708" type="line"/>
    </contour>
  </outline>
</glyph>
<glyph name="x" format="1">
  <advance width="1013"/>
  <unicode hex="0078"/>
  <outline>
    <contour>
      <point x="46" y="0" type="line"/>
      <point x="421" y="0" type="line"/>
      <point x="421" y="97" type="line"/>
      <point x="306" y="97" type="line"/>
      <point x="508" y="340" type="line"/>
      <point x="717" y="97" type="line"/>
      <point x="590" y="97" type="line"/>
      <point x="590" y="0" type="line"/>
      <point x="967" y="0" type="line"/>
      <point x="967" y="97" type="line"/>
      <point x="844" y="97" type="line"/>
      <point x="573" y="412" type="line"/>
      <point x="819" y="707" type="line"/>
      <point x="958" y="707" type="line"/>
      <point x="958" y="804" type="line"/>
      <point x="578" y="804" type="line"/>
      <point x="578" y="707" type="line"/>
      <point x="693" y="707" type="line"/>
      <point x="506" y="483" type="line"/>
      <point x="314" y="707" type="line"/>
      <point x="437" y="707" type="line"/>
      <point x="437" y="804" type="line"/>
      <point x="60" y="804" type="line"/>
      <point x="60" y="707" type="line"/>
      <point x="191" y="707" type="line"/>
      <point x="441" y="414" type="line"/>
      <point x="173" y="97" type="line"/>
      <point x="46" y="97" type="line"/>
    </contour>
  </outline>
</glyph>
<glyph name="y" format="1">
  <advance width="1021"/>
  <unicode hex="0079"/>
  <outline>
    <contour>
      <point x="528" y="805" type="move" name="top"/>
    </contour>
    <contour>
      <point x="183" y="-300" type="line"/>
      <point x="247" y="-300" type="line" smooth="yes"/>
      <point x="462" y="-300"/>
      <point x="539" y="-204"/>
      <point x="609" y="-16" type="curve" smooth="yes"/>
      <point x="887" y="707" type="line"/>
      <point x="1014" y="707" type="line"/>
      <point x="1014" y="804" type="line"/>
      <point x="613" y="804" type="line"/>
      <point x="613" y="707" type="line"/>
      <point x="751" y="707" type="line"/>
      <point x="540" y="112" type="line"/>
      <point x="290" y="707" type="line"/>
      <point x="420" y="707" type="line"/>
      <point x="420" y="804" type="line"/>
      <point x="22" y="804" type="line"/>
      <point x="22" y="707" type="line"/>
      <point x="158" y="707" type="line"/>
      <point x="442" y="48" type="line"/>
      <point x="523" y="48" type="line"/>
      <point x="479" y="-61" type="line" smooth="yes"/>
      <point x="439" y="-163"/>
      <point x="374" y="-200"/>
      <point x="249" y="-200" type="curve" smooth="yes"/>
      <point x="183" y="-200" type="line"/>
    </contour>
  </outline>
</glyph>
<glyph name="z" format="1">
  <advance width="846"/>
  <unicode hex="007A"/>
  <outline>
    <contour>
      <point x="444" y="804" type="move" name="top"/>
    </contour>
    <contour>
      <point x="102" y="0" type="line"/>
      <point x="772" y="0" type="line"/>
      <point x="772" y="273" type="line"/>
      <point x="665" y="273" type="line"/>
      <point x="665" y="96" type="line"/>
      <point x="251" y="96" type="line"/>
      <point x="750" y="700" type="line"/>
      <point x="750" y="804" type="line"/>
      <point x="110" y="804" type="line"/>
      <point x="110" y="545" type="line"/>
      <point x="212" y="545" type="line"/>
      <point x="212" y="708" type="line"/>
      <point x="602" y="708" type="line"/>
      <point x="102" y="99" type="line"/>
    </contour>
  </outline>
</glyph>
<glyph name="braceleft" format="1">
  <advance width="522"/>
  <unicode hex="007B"/>
  <outline>
    <contour>
      <point x="405" y="-94" type="curve" smooth="yes"/>
      <point x="473" y="-94" type="line"/>
      <point x="473" y="-13" type="line"/>
      <point x="322" y="-13"/>
      <point x="303" y="13"/>
      <point x="303" y="193" type="curve" smooth="yes"/>
      <point x="303" y="425"/>
      <point x="284" y="537"/>
      <point x="169" y="563" type="curve"/>
      <point x="290" y="593"/>
      <point x="303" y="706"/>
      <point x="303" y="961" type="curve" smooth="yes"/>
      <point x="303" y="1117"/>
      <point x="335" y="1140"/>
      <point x="473" y="1140" type="curve"/>
      <point x="473" y="1221" type="line"/>
      <point x="404" y="1221" type="line" smooth="yes"/>
      <point x="195" y="1221"/>
      <point x="192" y="1080"/>
      <point x="192" y="863" type="curve" smooth="yes"/>
      <point x="192" y="688"/>
      <point x="183" y="615"/>
      <point x="45" y="615" type="curve"/>
      <point x="45" y="513" type="line"/>
      <point x="181" y="513"/>
      <point x="192" y="443"/>
      <point x="192" y="275" type="curve" smooth="yes"/>
      <point x="192" y="44"/>
      <point x="196" y="-94"/>
    </contour>
  </outline>
</glyph>
<glyph name="braceright" format="1">
  <advance width="524"/>
  <unicode hex="007D"/>
  <outline>
    <contour>
      <point x="68" y="-94" type="line"/>
      <point x="137" y="-94" type="line" smooth="yes"/>
      <point x="346" y="-94"/>
      <point x="349" y="44"/>
      <point x="349" y="241" type="curve" smooth="yes"/>
      <point x="349" y="439"/>
      <point x="357" y="513"/>
      <point x="496" y="513" type="curve"/>
      <point x="496" y="615" type="line"/>
      <point x="363" y="615"/>
      <point x="349" y="685"/>
      <point x="349" y="884" type="curve" smooth="yes"/>
      <point x="349" y="1082"/>
      <point x="346" y="1221"/>
      <point x="137" y="1221" type="curve" smooth="yes"/>
      <point x="68" y="1221" type="line"/>
      <point x="68" y="1140" type="line"/>
      <point x="207" y="1140"/>
      <point x="238" y="1117"/>
      <point x="238" y="961" type="curve" smooth="yes"/>
      <point x="238" y="706"/>
      <point x="252" y="593"/>
      <point x="373" y="563" type="curve"/>
      <point x="257" y="536"/>
      <point x="239" y="424"/>
      <point x="239" y="191" type="curve" smooth="yes"/>
      <point x="239" y="12"/>
      <point x="219" y="-13"/>
      <point x="68" y="-13" type="curve"/>
    </contour>
  </outline>
</glyph>
<glyph name="asciitilde" format="1">
  <advance width="978"/>
  <unicode hex="007E"/>
  <outline>
    <contour>
      <point x="710" y="460" type="curve" smooth="yes"/>
      <point x="787" y="460"/>
      <point x="848" y="503"/>
      <point x="889" y="600" type="curve"/>
      <point x="834" y="652" type="line"/>
      <point x="804" y="595"/>
      <point x="761" y="564"/>
      <point x="709" y="564" type="curve" smooth="yes"/>
      <point x="594" y="564"/>
      <point x="438" y="698"/>
      <point x="285" y="698" type="curve" smooth="yes"/>
      <point x="206" y="698"/>
      <point x="140" y="657"/>
      <point x="93" y="558" type="curve"/>
      <point x="143" y="507" type="line"/>
      <point x="174" y="565"/>
      <point x="225" y="597"/>
      <point x="280" y="597" type="curve" smooth="yes"/>
      <point x="396" y="597"/>
      <point x="551" y="460"/>
    </contour>
  </outline>
</glyph>
<glyph name="cent" format="1">
  <advance width="943"/>
  <unicode hex="00A2"/>
  <outline>
    <contour>
      <point x="247" y="-315" type="line"/>
      <point x="612" y="667" type="line"/>
      <point x="697" y="1105" type="line"/>
      <point x="335" y="123" type="line"/>
    </contour>
    <component base="c"/>
  </outline>
</glyph>
<glyph name="sterling" format="1">
  <advance width="1054"/>
  <unicode hex="00A3"/>
  <outline>
    <contour>
      <point x="274" y="-20" type="curve" smooth="yes"/>
      <point x="369" y="-20"/>
      <point x="448" y="33"/>
      <point x="497" y="119" type="curve"/>
      <point x="578" y="40"/>
      <point x="668" y="-12"/>
      <point x="763" y="-12" type="curve" smooth="yes"/>
      <point x="938" y="-12"/>
      <point x="1006" y="87"/>
      <point x="1008" y="264" type="curve" smooth="yes"/>
      <point x="1008" y="274"/>
      <point x="1007" y="297"/>
      <point x="1006" y="307" type="curve"/>
      <point x="920" y="307" type="line"/>
      <point x="918" y="239"/>
      <point x="911" y="198"/>
      <point x="855" y="190" type="curve" smooth="yes"/>
      <point x="822" y="131"/>
      <point x="756" y="117"/>
      <point x="663" y="138" type="curve" smooth="yes"/>
      <point x="635" y="170"/>
      <point x="596" y="224"/>
      <point x="563" y="294" type="curve"/>
      <point x="573" y="352"/>
      <point x="570" y="410"/>
      <point x="557" y="470" type="curve" smooth="yes"/>
      <point x="557" y="503"/>
      <point x="725" y="537"/>
      <point x="714" y="567" type="curve"/>
      <point x="881" y="638" type="line"/>
      <point x="675" y="654" type="line"/>
      <point x="655" y="692"/>
      <point x="463" y="732"/>
      <point x="463" y="770" type="curve"/>
      <point x="433" y="891"/>
      <point x="419" y="962"/>
      <point x="486" y="1017" type="curve" smooth="yes"/>
      <point x="551" y="1089"/>
      <point x="627" y="1087"/>
      <point x="718" y="1030" type="curve" smooth="yes"/>
      <point x="798" y="1030"/>
      <point x="936" y="991"/>
      <point x="936" y="926" type="curve"/>
      <point x="936" y="1038"/>
      <point x="891" y="1109"/>
      <point x="774" y="1109" type="curve"/>
      <point x="653" y="1184"/>
      <point x="523" y="1162"/>
      <point x="431" y="1050" type="curve" smooth="yes"/>
      <point x="327" y="1008"/>
      <point x="275" y="925"/>
      <point x="291" y="811" type="curve" smooth="yes"/>
      <point x="291" y="755"/>
      <point x="270" y="708"/>
      <point x="296" y="654" type="curve"/>
      <point x="162" y="583" type="line"/>
      <point x="280" y="567" type="line"/>
      <point x="304" y="533"/>
      <point x="463" y="492"/>
      <point x="463" y="453" type="curve"/>
      <point x="477" y="418"/>
      <point x="484" y="378"/>
      <point x="482" y="337" type="curve" smooth="yes"/>
      <point x="482" y="311"/>
      <point x="478" y="284"/>
      <point x="471" y="258" type="curve"/>
      <point x="417" y="318"/>
      <point x="349" y="351"/>
      <point x="274" y="351" type="curve" smooth="yes"/>
      <point x="136" y="351"/>
      <point x="55" y="264"/>
      <point x="55" y="157" type="curve" smooth="yes"/>
      <point x="55" y="58"/>
      <point x="130" y="-20"/>
    </contour>
    <contour>
      <point x="268" y="61" type="curve" smooth="yes"/>
      <point x="198" y="61"/>
      <point x="156" y="105"/>
      <point x="156" y="159" type="curve" smooth="yes"/>
      <point x="156" y="220"/>
      <point x="205" y="260"/>
      <point x="278" y="260" type="curve" smooth="yes"/>
      <point x="342" y="260"/>
      <point x="399" y="219"/>
      <point x="440" y="175" type="curve"/>
      <point x="404" y="94"/>
      <point x="331" y="61"/>
    </contour>
  </outline>
</glyph>
<glyph name="currency" format="1">
  <advance width="975"/>
  <unicode hex="00A4"/>
  <outline>
    <contour>
      <point x="408" y="500" type="line"/>
      <point x="483" y="573" type="line"/>
      <point x="519" y="549"/>
      <point x="528" y="570"/>
      <point x="575" y="570" type="curve" smooth="yes"/>
      <point x="641" y="596"/>
      <point x="691" y="636"/>
      <point x="727" y="687" type="curve"/>
      <point x="727" y="715"/>
      <point x="777" y="685"/>
      <point x="758" y="710" type="curve"/>
      <point x="836" y="787" type="line"/>
      <point x="764" y="858" type="line"/>
      <point x="796" y="897"/>
      <point x="784" y="910"/>
      <point x="784" y="961" type="curve" smooth="yes"/>
      <point x="757" y="1026"/>
      <point x="717" y="1077"/>
      <point x="660" y="1115" type="curve"/>
      <point x="637" y="1115"/>
      <point x="669" y="1163"/>
      <point x="646" y="1149" type="curve"/>
      <point x="570" y="1227" type="line"/>
      <point x="494" y="1153" type="line"/>
      <point x="456" y="1178"/>
      <point x="446" y="1159"/>
      <point x="400" y="1159" type="curve" smooth="yes"/>
      <point x="334" y="1135"/>
      <point x="283" y="1093"/>
      <point x="245" y="1040" type="curve"/>
      <point x="245" y="1011"/>
      <point x="198" y="1039"/>
      <point x="218" y="1016" type="curve"/>
      <point x="141" y="939" type="line"/>
      <point x="211" y="871" type="line"/>
      <point x="179" y="834"/>
      <point x="192" y="821"/>
      <point x="192" y="769" type="curve" smooth="yes"/>
      <point x="216" y="703"/>
      <point x="257" y="650"/>
      <point x="314" y="610" type="curve"/>
      <point x="338" y="610"/>
      <point x="308" y="563"/>
      <point x="333" y="577" type="curve"/>
    </contour>
    <contour>
      <point x="487" y="630" type="curve" smooth="yes"/>
      <point x="362" y="630"/>
      <point x="263" y="723"/>
      <point x="263" y="862" type="curve" smooth="yes"/>
      <point x="263" y="1003"/>
      <point x="359" y="1096"/>
      <point x="486" y="1096" type="curve" smooth="yes"/>
      <point x="618" y="1096"/>
      <point x="712" y="1003"/>
      <point x="712" y="862" type="curve" smooth="yes"/>
      <point x="712" y="721"/>
      <point x="613" y="630"/>
    </contour>
  </outline>
</glyph>
<glyph name="brokenbar" format="1">
  <advance width="407"/>
  <unicode hex="00A6"/>
  <outline>
    <contour>
      <point x="151" y="-113" type="line"/>
      <point x="255" y="-113" type="line"/>
      <point x="255" y="443" type="line"/>
      <point x="151" y="443" type="line"/>
    </contour>
    <contour>
      <point x="151" y="671" type="line"/>
      <point x="255" y="671" type="line"/>
      <point x="255" y="1227" type="line"/>
      <point x="151" y="1227" type="line"/>
    </contour>
  </outline>
</glyph>
<glyph name="dieresis" format="1">
  <advance width="506"/>
  <unicode hex="00A8"/>
  <outline>
    <contour>
      <point x="265" y="805" type="move" name="_top"/>
    </contour>
    <contour>
      <point x="105" y="944" type="curve" smooth="yes"/>
      <point x="157" y="944"/>
      <point x="187" y="983"/>
      <point x="187" y="1023" type="curve"/>
      <point x="187" y="1070"/>
      <point x="152" y="1102"/>
      <point x="105" y="1102" type="curve" smooth="yes"/>
      <point x="58" y="1102"/>
      <point x="22" y="1067"/>
      <point x="23" y="1023" type="curve" smooth="yes"/>
      <point x="23" y="982"/>
      <point x="58" y="944"/>
    </contour>
    <contour>
      <point x="399" y="946" type="curve" smooth="yes"/>
      <point x="452" y="946"/>
      <point x="482" y="984"/>
      <point x="481" y="1025" type="curve"/>
      <point x="481" y="1072"/>
      <point x="446" y="1103"/>
      <point x="399" y="1103" type="curve" smooth="yes"/>
      <point x="352" y="1103"/>
      <point x="317" y="1068"/>
      <point x="317" y="1025" type="curve" smooth="yes"/>
      <point x="317" y="983"/>
      <point x="353" y="946"/>
    </contour>
  </outline>
</glyph>
<glyph name="copyright" format="1">
  <advance width="1396"/>
  <unicode hex="00A9"/>
  <outline>
    <contour>
      <point x="691" y="253" type="curve" smooth="yes"/>
      <point x="811" y="253"/>
      <point x="907" y="295"/>
      <point x="975" y="384" type="curve"/>
      <point x="925" y="450" type="line"/>
      <point x="873" y="374"/>
      <point x="792" y="335"/>
      <point x="697" y="335" type="curve" smooth="yes"/>
      <point x="563" y="335"/>
      <point x="477" y="433"/>
      <point x="477" y="575" type="curve" smooth="yes"/>
      <point x="477" y="729"/>
      <point x="564" y="820"/>
      <point x="699" y="820" type="curve" smooth="yes"/>
      <point x="810" y="820"/>
      <point x="863" y="764"/>
      <point x="880" y="682" type="curve"/>
      <point x="963" y="682" type="line"/>
      <point x="963" y="895" type="line"/>
      <point x="875" y="895" type="line"/>
      <point x="876" y="824" type="line"/>
      <point x="851" y="874"/>
      <point x="773" y="900"/>
      <point x="684" y="900" type="curve" smooth="yes"/>
      <point x="504" y="899"/>
      <point x="375" y="757"/>
      <point x="375" y="580" type="curve" smooth="yes"/>
      <point x="375" y="391"/>
      <point x="505" y="254"/>
    </contour>
    <contour>
      <point x="697" y="49" type="curve" smooth="yes"/>
      <point x="375" y="49"/>
      <point x="185" y="290"/>
      <point x="185" y="577" type="curve" smooth="yes"/>
      <point x="185" y="862"/>
      <point x="376" y="1106"/>
      <point x="697" y="1106" type="curve" smooth="yes"/>
      <point x="1018" y="1106"/>
      <point x="1209" y="861"/>
      <point x="1210" y="577" type="curve" smooth="yes"/>
      <point x="1209" y="294"/>
      <point x="1017" y="49"/>
    </contour>
    <contour>
      <point x="698" y="-31" type="curve" smooth="yes"/>
      <point x="1078" y="-31"/>
      <point x="1312" y="242"/>
      <point x="1312" y="577" type="curve" smooth="yes"/>
      <point x="1312" y="912"/>
      <point x="1078" y="1188"/>
      <point x="698" y="1188" type="curve" smooth="yes"/>
      <point x="319" y="1188"/>
      <point x="84" y="912"/>
      <point x="84" y="577" type="curve" smooth="yes"/>
      <point x="84" y="242"/>
      <point x="319" y="-31"/>
    </contour>
  </outline>
</glyph>
<glyph name="ordfeminine" format="1">
  <advance width="774"/>
  <unicode hex="00AA"/>
  <outline>
    <contour>
      <point x="311" y="539" type="curve" smooth="yes"/>
      <point x="389" y="539"/>
      <point x="458" y="565"/>
      <point x="524" y="613" type="curve"/>
      <point x="529" y="549" type="line"/>
      <point x="719" y="549" type="line"/>
      <point x="719" y="624" type="line"/>
      <point x="610" y="624" type="line"/>
      <point x="610" y="978" type="line" smooth="yes"/>
      <point x="610" y="1078"/>
      <point x="548" y="1174"/>
      <point x="371" y="1174" type="curve" smooth="yes"/>
      <point x="265" y="1174"/>
      <point x="181" y="1147"/>
      <point x="124" y="1084" type="curve"/>
      <point x="185" y="1026" type="line"/>
      <point x="225" y="1073"/>
      <point x="286" y="1098"/>
      <point x="365" y="1098" type="curve" smooth="yes"/>
      <point x="459" y="1098"/>
      <point x="518" y="1061"/>
      <point x="518" y="966" type="curve" smooth="yes"/>
      <point x="518" y="887" type="line"/>
      <point x="464" y="901"/>
      <point x="410" y="911"/>
      <point x="358" y="911" type="curve" smooth="yes"/>
      <point x="224" y="911"/>
      <point x="98" y="877"/>
      <point x="98" y="722" type="curve" smooth="yes"/>
      <point x="98" y="624"/>
      <point x="174" y="539"/>
    </contour>
    <contour>
      <point x="322" y="614" type="curve" smooth="yes"/>
      <point x="228" y="614"/>
      <point x="190" y="668"/>
      <point x="190" y="722" type="curve" smooth="yes"/>
      <point x="190" y="825"/>
      <point x="274" y="838"/>
      <point x="366" y="838" type="curve" smooth="yes"/>
      <point x="422" y="838"/>
      <point x="488" y="825"/>
      <point x="518" y="815" type="curve"/>
      <point x="518" y="683" type="line"/>
      <point x="463" y="633"/>
      <point x="393" y="614"/>
    </contour>
  </outline>
</glyph>
<glyph name="guillemotleft" format="1">
  <advance width="843"/>
  <unicode hex="00AB"/>
  <outline>
    <contour>
      <point x="333" y="231" type="line"/>
      <point x="416" y="231" type="line"/>
      <point x="206" y="624" type="line"/>
      <point x="416" y="1014" type="line"/>
      <point x="333" y="1014" type="line"/>
      <point x="46" y="623" type="line"/>
    </contour>
    <contour>
      <point x="665" y="231" type="line"/>
      <point x="748" y="231" type="line"/>
      <point x="537" y="624" type="line"/>
      <point x="748" y="1014" type="line"/>
      <point x="665" y="1014" type="line"/>
      <point x="377" y="623" type="line"/>
    </contour>
  </outline>
</glyph>
<glyph name="logicalnot" format="1">
  <advance width="1045"/>
  <unicode hex="00AC"/>
  <outline>
    <contour>
      <point x="834" y="304" type="line"/>
      <point x="937" y="304" type="line"/>
      <point x="937" y="789" type="line"/>
      <point x="67" y="789" type="line"/>
      <point x="67" y="688" type="line"/>
      <point x="834" y="688" type="line"/>
    </contour>
  </outline>
</glyph>
<glyph name="registered" format="1">
  <advance width="1396"/>
  <unicode hex="00AE"/>
  <outline>
    <contour>
      <point x="409" y="253" type="line"/>
      <point x="666" y="253" type="line"/>
      <point x="666" y="318" type="line"/>
      <point x="577" y="318" type="line"/>
      <point x="577" y="558" type="line"/>
      <point x="700" y="558" type="line"/>
      <point x="868" y="253" type="line"/>
      <point x="1010" y="253" type="line"/>
      <point x="1010" y="318" type="line"/>
      <point x="923" y="318" type="line"/>
      <point x="783" y="566" type="line"/>
      <point x="888" y="581"/>
      <point x="941" y="649"/>
      <point x="941" y="740" type="curve" smooth="yes"/>
      <point x="941" y="848"/>
      <point x="863" y="914"/>
      <point x="732" y="914" type="curve" smooth="yes"/>
      <point x="407" y="914" type="line"/>
      <point x="407" y="849" type="line"/>
      <point x="496" y="849" type="line"/>
      <point x="496" y="318" type="line"/>
      <point x="409" y="318" type="line"/>
    </contour>
    <contour>
      <point x="577" y="624" type="line"/>
      <point x="577" y="849" type="line"/>
      <point x="727" y="849" type="line" smooth="yes"/>
      <point x="816" y="849"/>
      <point x="860" y="804"/>
      <point x="860" y="739" type="curve" smooth="yes"/>
      <point x="860" y="667"/>
      <point x="811" y="624"/>
      <point x="730" y="624" type="curve" smooth="yes"/>
    </contour>
    <contour>
      <point x="697" y="48" type="curve" smooth="yes"/>
      <point x="375" y="48"/>
      <point x="185" y="290"/>
      <point x="185" y="577" type="curve" smooth="yes"/>
      <point x="185" y="861"/>
      <point x="376" y="1105"/>
      <point x="697" y="1105" type="curve" smooth="yes"/>
      <point x="1018" y="1105"/>
      <point x="1209" y="860"/>
      <point x="1210" y="577" type="curve" smooth="yes"/>
      <point x="1209" y="293"/>
      <point x="1017" y="48"/>
    </contour>
    <contour>
      <point x="698" y="-32" type="curve" smooth="yes"/>
      <point x="1078" y="-32"/>
      <point x="1312" y="242"/>
      <point x="1312" y="576" type="curve" smooth="yes"/>
      <point x="1312" y="911"/>
      <point x="1078" y="1188"/>
      <point x="698" y="1188" type="curve" smooth="yes"/>
      <point x="319" y="1188"/>
      <point x="84" y="911"/>
      <point x="84" y="576" type="curve" smooth="yes"/>
      <point x="84" y="242"/>
      <point x="319" y="-32"/>
    </contour>
  </outline>
</glyph>
<glyph name="macron" format="1">
  <advance width="527"/>
  <unicode hex="00AF"/>
  <outline>
    <contour>
      <point x="275" y="804" type="move" name="_top"/>
    </contour>
    <contour>
      <point x="271" y="980" type="move" name="_mid"/>
    </contour>
    <contour>
      <point x="49" y="941" type="line"/>
      <point x="477" y="941" type="line"/>
      <point x="477" y="1019" type="line"/>
      <point x="49" y="1019" type="line"/>
    </contour>
  </outline>
</glyph>
<glyph name="degree" format="1">
  <advance width="717"/>
  <unicode hex="00B0"/>
  <outline>
    <contour>
      <point x="358" y="767" type="curve" smooth="yes"/>
      <point x="264" y="767"/>
      <point x="193" y="838"/>
      <point x="193" y="933" type="curve"/>
      <point x="192" y="1029"/>
      <point x="264" y="1100"/>
      <point x="360" y="1100" type="curve" smooth="yes"/>
      <point x="454" y="1100"/>
      <point x="525" y="1028"/>
      <point x="525" y="932" type="curve" smooth="yes"/>
      <point x="525" y="837"/>
      <point x="454" y="767"/>
    </contour>
    <contour>
      <point x="359" y="689" type="curve" smooth="yes"/>
      <point x="505" y="688"/>
      <point x="615" y="793"/>
      <point x="615" y="932" type="curve" smooth="yes"/>
      <point x="615" y="1071"/>
      <point x="505" y="1176"/>
      <point x="359" y="1176" type="curve" smooth="yes"/>
      <point x="212" y="1176"/>
      <point x="102" y="1071"/>
      <point x="102" y="932" type="curve" smooth="yes"/>
      <point x="102" y="793"/>
      <point x="212" y="689"/>
    </contour>
  </outline>
</glyph>
<glyph name="plusminus" format="1">
  <advance width="1057"/>
  <unicode hex="00B1"/>
  <outline>
    <contour>
      <point x="477" y="253" type="line"/>
      <point x="579" y="253" type="line"/>
      <point x="579" y="626" type="line"/>
      <point x="951" y="626" type="line"/>
      <point x="951" y="728" type="line"/>
      <point x="579" y="728" type="line"/>
      <point x="579" y="1095" type="line"/>
      <point x="477" y="1095" type="line"/>
      <point x="477" y="728" type="line"/>
      <point x="107" y="728" type="line"/>
      <point x="107" y="626" type="line"/>
      <point x="477" y="626" type="line"/>
    </contour>
    <contour>
      <point x="106" y="0" type="line"/>
      <point x="950" y="0" type="line"/>
      <point x="950" y="101" type="line"/>
      <point x="106" y="101" type="line"/>
    </contour>
  </outline>
</glyph>
<glyph name="acute" format="1">
  <advance width="439"/>
  <unicode hex="00B4"/>
  <outline>
    <contour>
      <point x="172" y="805" type="move" name="_top"/>
    </contour>
    <contour>
      <point x="113" y="910" type="line"/>
      <point x="202" y="910" type="line"/>
      <point x="378" y="1165" type="line"/>
      <point x="198" y="1165" type="line"/>
    </contour>
  </outline>
</glyph>
<glyph name="paragraph" format="1">
  <advance width="1031"/>
  <unicode hex="00B6"/>
  <outline>
    <contour>
      <point x="526" y="-7" type="line"/>
      <point x="949" y="-7" type="line"/>
      <point x="949" y="90" type="line"/>
      <point x="821" y="90" type="line"/>
      <point x="821" y="1043" type="line"/>
      <point x="964" y="1043" type="line"/>
      <point x="964" y="1152" type="line"/>
      <point x="451" y="1152" type="line" smooth="yes"/>
      <point x="223" y="1152"/>
      <point x="91" y="1018"/>
      <point x="91" y="826" type="curve" smooth="yes"/>
      <point x="91" y="639"/>
      <point x="226" y="499"/>
      <point x="438" y="495" type="curve" smooth="yes"/>
      <point x="694" y="495" type="line"/>
      <point x="694" y="90" type="line"/>
      <point x="526" y="90" type="line"/>
    </contour>
    <contour>
      <point x="632" y="601" type="line"/>
      <point x="498" y="737" type="line"/>
      <point x="560" y="1043" type="line"/>
      <point x="694" y="907" type="line"/>
    </contour>
  </outline>
</glyph>
<glyph name="onesuperior" format="1">
  <advance width="584"/>
  <unicode hex="00B9"/>
  <outline>
    <contour>
      <point x="145" y="455" type="line"/>
      <point x="508" y="455" type="line"/>
      <point x="508" y="543" type="line"/>
      <point x="384" y="543" type="line"/>
      <point x="384" y="1324" type="line"/>
      <point x="138" y="1284" type="line"/>
      <point x="155" y="1191" type="line"/>
      <point x="266" y="1209" type="line"/>
      <point x="266" y="543" type="line"/>
      <point x="145" y="543" type="line"/>
    </contour>
  </outline>
</glyph>
<glyph name="ordmasculine" format="1">
  <advance width="811"/>
  <unicode hex="00BA"/>
  <outline>
    <contour>
      <point x="405" y="613" type="curve" smooth="yes"/>
      <point x="282" y="613"/>
      <point x="177" y="702"/>
      <point x="177" y="854" type="curve" smooth="yes"/>
      <point x="177" y="1004"/>
      <point x="282" y="1093"/>
      <point x="405" y="1093" type="curve" smooth="yes"/>
      <point x="527" y="1093"/>
      <point x="634" y="1004"/>
      <point x="634" y="854" type="curve" smooth="yes"/>
      <point x="634" y="702"/>
      <point x="527" y="613"/>
    </contour>
    <contour>
      <point x="405" y="532" type="curve" smooth="yes"/>
      <point x="578" y="532"/>
      <point x="729" y="652"/>
      <point x="729" y="854" type="curve" smooth="yes"/>
      <point x="729" y="1056"/>
      <point x="578" y="1174"/>
      <point x="405" y="1174" type="curve" smooth="yes"/>
      <point x="231" y="1174"/>
      <point x="82" y="1055"/>
      <point x="82" y="854" type="curve" smooth="yes"/>
      <point x="82" y="652"/>
      <point x="231" y="532"/>
    </contour>
  </outline>
</glyph>
<glyph name="guillemotright" format="1">
  <advance width="843"/>
  <unicode hex="00BB"/>
  <outline>
    <contour>
      <point x="95" y="231" type="line"/>
      <point x="178" y="231" type="line"/>
      <point x="465" y="623" type="line"/>
      <point x="178" y="1014" type="line"/>
      <point x="95" y="1014" type="line"/>
      <point x="305" y="624" type="line"/>
    </contour>
    <contour>
      <point x="426" y="231" type="line"/>
      <point x="509" y="231" type="line"/>
      <point x="797" y="623" type="line"/>
      <point x="509" y="1014" type="line"/>
      <point x="426" y="1014" type="line"/>
      <point x="637" y="624" type="line"/>
    </contour>
  </outline>
</glyph>
<glyph name="onequarter" format="1">
  <advance width="1601"/>
  <unicode hex="00BC"/>
  <outline>
    <contour>
      <point x="1156" y="0" type="line"/>
      <point x="1497" y="0" type="line"/>
      <point x="1497" y="72" type="line"/>
      <point x="1380" y="72" type="line"/>
      <point x="1380" y="256" type="line"/>
      <point x="1522" y="256" type="line"/>
      <point x="1522" y="324" type="line"/>
      <point x="1380" y="324" type="line"/>
      <point x="1380" y="804" type="line"/>
      <point x="1284" y="804" type="line"/>
      <point x="921" y="322" type="line"/>
      <point x="924" y="256" type="line"/>
      <point x="1288" y="256" type="line"/>
      <point x="1288" y="72" type="line"/>
      <point x="1156" y="72" type="line"/>
    </contour>
    <contour>
      <point x="119" y="348" type="line"/>
      <point x="452" y="348" type="line"/>
      <point x="452" y="427" type="line"/>
      <point x="335" y="427" type="line"/>
      <point x="335" y="1152" type="line"/>
      <point x="115" y="1152" type="line"/>
      <point x="115" y="1072" type="line"/>
      <point x="241" y="1072" type="line"/>
      <point x="241" y="427" type="line"/>
      <point x="119" y="427" type="line"/>
    </contour>
    <contour>
      <point x="368" y="0" type="line"/>
      <point x="459" y="0" type="line"/>
      <point x="1233" y="1152" type="line"/>
      <point x="1145" y="1152" type="line"/>
    </contour>
    <contour>
      <point x="1016" y="324" type="line"/>
      <point x="1288" y="697" type="line"/>
      <point x="1288" y="324" type="line"/>
    </contour>
  </outline>
</glyph>
<glyph name="AE" format="1">
  <advance width="1876"/>
  <unicode hex="00C6"/>
  <outline>
    <contour>
      <point x="63" y="0" type="line"/>
      <point x="499" y="0" type="line"/>
      <point x="502" y="98" type="line"/>
      <point x="347" y="98" type="line"/>
      <point x="493" y="430" type="line"/>
      <point x="908" y="430" type="line"/>
      <point x="970" y="98" type="line"/>
      <point x="805" y="98" type="line"/>
      <point x="801" y="0" type="line"/>
      <point x="1750" y="0" type="line"/>
      <point x="1727" y="344" type="line"/>
      <point x="1615" y="344" type="line"/>
      <point x="1634" y="101" type="line"/>
      <point x="1100" y="101" type="line"/>
      <point x="1018" y="526" type="line"/>
      <point x="1365" y="526" type="line"/>
      <point x="1375" y="377" type="line"/>
      <point x="1465" y="377" type="line"/>
      <point x="1441" y="749" type="line"/>
      <point x="1351" y="749" type="line"/>
      <point x="1361" y="621" type="line"/>
      <point x="1001" y="621" type="line"/>
      <point x="922" y="1052" type="line"/>
      <point x="1487" y="1052" type="line"/>
      <point x="1508" y="813" type="line"/>
      <point x="1622" y="813" type="line"/>
      <point x="1598" y="1153" type="line"/>
      <point x="481" y="1153" type="line"/>
      <point x="477" y="1054" type="line"/>
      <point x="631" y="1054" type="line"/>
      <point x="210" y="98" type="line"/>
      <point x="66" y="98" type="line"/>
    </contour>
    <contour>
      <point x="532" y="531" type="line"/>
      <point x="747" y="1051" type="line"/>
      <point x="795" y="1051" type="line"/>
      <point x="889" y="531" type="line"/>
    </contour>
  </outline>
</glyph>
<glyph name="multiply" format="1">
  <advance width="836"/>
  <unicode hex="00D7"/>
  <outline>
    <contour>
      <point x="352" y="267" type="line"/>
      <point x="506" y="421" type="line"/>
      <point x="579" y="350" type="line"/>
      <point x="702" y="472" type="line"/>
      <point x="547" y="627" type="line"/>
      <point x="620" y="699" type="line"/>
      <point x="497" y="821" type="line"/>
      <point x="341" y="667" type="line"/>
      <point x="269" y="739" type="line"/>
      <point x="146" y="616" type="line"/>
      <point x="301" y="461" type="line"/>
      <point x="228" y="390" type="line"/>
    </contour>
  </outline>
</glyph>
<glyph name="Thorn" format="1">
  <advance width="1063"/>
  <unicode hex="00DE"/>
  <outline>
    <contour>
      <point x="77" y="0" type="line"/>
      <point x="525" y="0" type="line"/>
      <point x="525" y="98" type="line"/>
      <point x="363" y="98" type="line"/>
      <point x="363" y="275" type="line"/>
      <point x="581" y="275" type="line" smooth="yes"/>
      <point x="856" y="275"/>
      <point x="1007" y="377"/>
      <point x="1007" y="612" type="curve" smooth="yes"/>
      <point x="1007" y="811"/>
      <point x="859" y="936"/>
      <point x="630" y="936" type="curve" smooth="yes"/>
      <point x="362" y="936" type="line"/>
      <point x="362" y="1055" type="line"/>
      <point x="520" y="1055" type="line"/>
      <point x="520" y="1153" type="line"/>
      <point x="77" y="1153" type="line"/>
      <point x="77" y="1054" type="line"/>
      <point x="228" y="1054" type="line"/>
      <point x="228" y="98" type="line"/>
      <point x="77" y="98" type="line"/>
    </contour>
    <contour>
      <point x="362" y="380" type="line"/>
      <point x="362" y="830" type="line"/>
      <point x="634" y="830" type="line" smooth="yes"/>
      <point x="789" y="830"/>
      <point x="871" y="742"/>
      <point x="871" y="604" type="curve" smooth="yes"/>
      <point x="869" y="464"/>
      <point x="781" y="380"/>
      <point x="601" y="380" type="curve" smooth="yes"/>
    </contour>
  </outline>
</glyph>
<glyph name="germandbls" format="1">
  <advance width="1134"/>
  <unicode hex="00DF"/>
  <outline>
    <contour>
      <point x="81" y="0" type="line"/>
      <point x="478" y="0" type="line"/>
      <point x="478" y="98" type="line"/>
      <point x="349" y="98" type="line"/>
      <point x="349" y="812" type="line" smooth="yes"/>
      <point x="349" y="987"/>
      <point x="443" y="1097"/>
      <point x="594" y="1097" type="curve" smooth="yes"/>
      <point x="725" y="1097"/>
      <point x="807" y="1021"/>
      <point x="807" y="901" type="curve" smooth="yes"/>
      <point x="807" y="767"/>
      <point x="719" y="681"/>
      <point x="580" y="678" type="curve"/>
      <point x="580" y="593" type="line"/>
      <point x="792" y="594"/>
      <point x="924" y="498"/>
      <point x="924" y="343" type="curve" smooth="yes"/>
      <point x="924" y="193"/>
      <point x="801" y="98"/>
      <point x="604" y="98" type="curve"/>
      <point x="604" y="0" type="line"/>
      <point x="836" y="0"/>
      <point x="1001" y="97"/>
      <point x="1032" y="251" type="curve" smooth="yes"/>
      <point x="1086" y="468"/>
      <point x="972" y="623"/>
      <point x="738" y="653" type="curve"/>
      <point x="856" y="684"/>
      <point x="929" y="785"/>
      <point x="929" y="912" type="curve"/>
      <point x="928" y="1088"/>
      <point x="796" y="1197"/>
      <point x="586" y="1197" type="curve" smooth="yes"/>
      <point x="366" y="1197"/>
      <point x="232" y="1048"/>
      <point x="232" y="808" type="curve" smooth="yes"/>
      <point x="232" y="98" type="line"/>
      <point x="81" y="98" type="line"/>
    </contour>
  </outline>
</glyph>
<glyph name="eth" format="1">
  <advance width="977"/>
  <unicode hex="00F0"/>
  <outline>
    <contour>
      <point x="483" y="-22" type="curve" smooth="yes"/>
      <point x="707" y="-22"/>
      <point x="876" y="144"/>
      <point x="876" y="384" type="curve" smooth="yes"/>
      <point x="876" y="711"/>
      <point x="613" y="1037"/>
      <point x="188" y="1348" type="curve"/>
      <point x="115" y="1258" type="line"/>
      <point x="381" y="1070"/>
      <point x="563" y="907"/>
      <point x="698" y="682" type="curve"/>
      <point x="637" y="746"/>
      <point x="542" y="777"/>
      <point x="457" y="777" type="curve" smooth="yes"/>
      <point x="269" y="777"/>
      <point x="78" y="637"/>
      <point x="78" y="394" type="curve" smooth="yes"/>
      <point x="78" y="165"/>
      <point x="244" y="-22"/>
    </contour>
    <contour>
      <point x="483" y="82" type="curve" smooth="yes"/>
      <point x="315" y="82"/>
      <point x="202" y="222"/>
      <point x="202" y="389" type="curve" smooth="yes"/>
      <point x="202" y="567"/>
      <point x="323" y="677"/>
      <point x="479" y="677" type="curve" smooth="yes"/>
      <point x="633" y="677"/>
      <point x="760" y="555"/>
      <point x="760" y="375" type="curve" smooth="yes"/>
      <point x="760" y="209"/>
      <point x="647" y="82"/>
    </contour>
    <contour>
      <point x="183" y="881" type="line"/>
      <point x="792" y="1152" type="line"/>
      <point x="751" y="1227" type="line"/>
      <point x="143" y="960" type="line"/>
    </contour>
  </outline>
</glyph>
<glyph name="oslash" format="1">
  <advance width="996"/>
  <unicode hex="00F8"/>
  <outline>
    <contour>
      <point x="266" y="-140" type="line"/>
      <point x="827" y="907" type="line"/>
      <point x="751" y="944" type="line"/>
      <point x="190" y="-104" type="line"/>
    </contour>
    <component base="o"/>
  </outline>
</glyph>
<glyph name="thorn" format="1">
  <advance width="1027"/>
  <unicode hex="00FE"/>
  <outline>
    <contour>
      <point x="19" y="-322" type="line"/>
      <point x="296" y="-322" type="line"/>
      <point x="297" y="1153" type="line"/>
      <point x="25" y="1153" type="line"/>
      <point x="25" y="1055" type="line"/>
      <point x="170" y="1055" type="line"/>
      <point x="170" y="-219" type="line"/>
      <point x="19" y="-219" type="line"/>
    </contour>
    <component base="lc_bowl_right" xOffset="-53" yOffset="21"/>
  </outline>
</glyph>
<glyph name="kgreenlandic" format="1">
  <advance width="1063"/>
  <unicode hex="0138"/>
  <outline>
    <contour>
      <point x="69" y="0" type="line"/>
      <point x="489" y="0" type="line"/>
      <point x="489" y="97" type="line"/>
      <point x="358" y="97" type="line"/>
      <point x="358" y="396" type="line"/>
      <point x="721" y="97" type="line"/>
      <point x="609" y="97" type="line"/>
      <point x="609" y="0" type="line"/>
      <point x="1016" y="0" type="line"/>
      <point x="1016" y="97" type="line"/>
      <point x="879" y="97" type="line"/>
      <point x="501" y="409" type="line"/>
      <point x="860" y="707" type="line"/>
      <point x="1001" y="707" type="line"/>
      <point x="1001" y="804" type="line"/>
      <point x="574" y="804" type="line"/>
      <point x="574" y="707" type="line"/>
      <point x="708" y="707" type="line"/>
      <point x="358" y="421" type="line"/>
      <point x="358" y="804" type="line"/>
      <point x="69" y="804" type="line"/>
      <point x="69" y="707" type="line"/>
      <point x="233" y="707" type="line"/>
      <point x="233" y="97" type="line"/>
      <point x="69" y="97" type="line"/>
    </contour>
  </outline>
</glyph>
<glyph name="lslash" format="1">
  <advance width="581"/>
  <unicode hex="0142"/>
  <outline>
    <contour>
      <point x="88" y="426" type="line"/>
      <point x="524" y="639" type="line"/>
      <point x="524" y="754" type="line"/>
      <point x="88" y="535" type="line"/>
    </contour>
  </outline>
</glyph>
<glyph name="OE" format="1">
  <advance width="1947"/>
  <unicode hex="0152"/>
  <outline>
    <contour>
      <point x="703" y="0" type="curve" smooth="yes"/>
      <point x="1808" y="0" type="line"/>
      <point x="1808" y="344" type="line"/>
      <point x="1696" y="344" type="line"/>
      <point x="1696" y="101" type="line"/>
      <point x="1138" y="101" type="line"/>
      <point x="1138" y="529" type="line"/>
      <point x="1512" y="529" type="line"/>
      <point x="1512" y="394" type="line"/>
      <point x="1602" y="394" type="line"/>
      <point x="1602" y="767" type="line"/>
      <point x="1513" y="767" type="line"/>
      <point x="1513" y="627" type="line"/>
      <point x="1137" y="627" type="line"/>
      <point x="1137" y="1052" type="line"/>
      <point x="1687" y="1052" type="line"/>
      <point x="1687" y="820" type="line"/>
      <point x="1800" y="820" type="line"/>
      <point x="1800" y="1152" type="line"/>
      <point x="703" y="1152" type="line" smooth="yes"/>
      <point x="350" y="1151"/>
      <point x="117" y="917"/>
      <point x="118" y="574" type="curve" smooth="yes"/>
      <point x="117" y="234"/>
      <point x="350" y="0"/>
    </contour>
    <contour>
      <point x="735" y="101" type="line"/>
      <point x="447" y="102"/>
      <point x="264" y="288"/>
      <point x="265" y="575" type="curve"/>
      <point x="264" y="864"/>
      <point x="439" y="1051"/>
      <point x="729" y="1050" type="curve" smooth="yes"/>
      <point x="1003" y="1049" type="line"/>
      <point x="1003" y="99" type="line"/>
    </contour>
  </outline>
</glyph>
<glyph name="uni0237" format="1">
  <advance width="521"/>
  <unicode hex="0237"/>
  <outline>
    <contour>
      <point x="247" y="804" type="move" name="top"/>
    </contour>
    <contour>
      <point x="36" y="-288" type="line"/>
      <point x="122" y="-288" type="line" smooth="yes"/>
      <point x="338" y="-288"/>
      <point x="379" y="-192"/>
      <point x="379" y="6" type="curve" smooth="yes"/>
      <point x="379" y="805" type="line"/>
      <point x="70" y="805" type="line"/>
      <point x="70" y="709" type="line"/>
      <point x="255" y="709" type="line"/>
      <point x="255" y="-15" type="line" smooth="yes"/>
      <point x="255" y="-122"/>
      <point x="243" y="-186"/>
      <point x="132" y="-186" type="curve" smooth="yes"/>
      <point x="36" y="-186" type="line"/>
    </contour>
  </outline>
</glyph>
<glyph name="circumflex" format="1">
  <advance width="534"/>
  <unicode hex="02C6"/>
  <outline>
    <contour>
      <point x="267" y="804" type="move" name="_top"/>
    </contour>
    <contour>
      <point x="45" y="905" type="line"/>
      <point x="168" y="905" type="line"/>
      <point x="265" y="1133" type="line"/>
      <point x="361" y="905" type="line"/>
      <point x="490" y="905" type="line"/>
      <point x="372" y="1179" type="line"/>
      <point x="157" y="1179" type="line"/>
    </contour>
  </outline>
</glyph>
<glyph name="caron" format="1">
  <advance width="535"/>
  <unicode hex="02C7"/>
  <outline>
    <contour>
      <point x="271" y="805" type="move" name="_top"/>
    </contour>
    <contour>
      <point x="187" y="915" type="line"/>
      <point x="349" y="915" type="line"/>
      <point x="504" y="1179" type="line"/>
      <point x="405" y="1179" type="line"/>
      <point x="269" y="1002" type="line"/>
      <point x="131" y="1179" type="line"/>
      <point x="32" y="1179" type="line"/>
    </contour>
  </outline>
</glyph>
<glyph name="uni02C9" format="1">
  <advance width="600"/>
  <unicode hex="02C9"/>
  <outline>
    <contour>
      <point x="96" y="1025" type="line"/>
      <point x="524" y="1025" type="line"/>
      <point x="524" y="1119" type="line"/>
      <point x="96" y="1119" type="line"/>
    </contour>
  </outline>
</glyph>
<glyph name="breve" format="1">
  <advance width="500"/>
  <unicode hex="02D8"/>
  <outline>
    <contour>
      <point x="256" y="805" type="move" name="_top"/>
    </contour>
    <contour>
      <point x="251" y="939" type="curve" smooth="yes"/>
      <point x="378" y="939"/>
      <point x="467" y="1015"/>
      <point x="479" y="1131" type="curve"/>
      <point x="374" y="1131" type="line"/>
      <point x="363" y="1063"/>
      <point x="308" y="1030"/>
      <point x="252" y="1030" type="curve" smooth="yes"/>
      <point x="197" y="1030"/>
      <point x="139" y="1063"/>
      <point x="127" y="1131" type="curve"/>
      <point x="22" y="1131" type="line"/>
      <point x="34" y="1011"/>
      <point x="132" y="939"/>
    </contour>
  </outline>
</glyph>
<glyph name="dotaccent" format="1">
  <advance width="527"/>
  <unicode hex="02D9"/>
  <outline>
    <contour>
      <point x="266" y="805" type="move" name="_top"/>
    </contour>
    <contour>
      <point x="265" y="951" type="curve" smooth="yes"/>
      <point x="315" y="951"/>
      <point x="347" y="988"/>
      <point x="346" y="1030" type="curve"/>
      <point x="346" y="1080"/>
      <point x="309" y="1109"/>
      <point x="265" y="1109" type="curve" smooth="yes"/>
      <point x="221" y="1109"/>
      <point x="183" y="1076"/>
      <point x="184" y="1030" type="curve" smooth="yes"/>
      <point x="184" y="986"/>
      <point x="221" y="951"/>
    </contour>
  </outline>
</glyph>
<glyph name="ring" format="1">
  <advance width="463"/>
  <unicode hex="02DA"/>
  <outline>
    <contour>
      <point x="257" y="827" type="move" name="_top"/>
    </contour>
    <contour>
      <point x="234" y="964" type="curve" smooth="yes"/>
      <point x="230" y="964"/>
      <point x="212" y="1009"/>
      <point x="212" y="1076" type="curve"/>
      <point x="212" y="1143"/>
      <point x="229" y="1187"/>
      <point x="232" y="1187" type="curve" smooth="yes"/>
      <point x="236" y="1187"/>
      <point x="253" y="1143"/>
      <point x="253" y="1076" type="curve" smooth="yes"/>
      <point x="253" y="1008"/>
      <point x="237" y="964"/>
    </contour>
    <contour>
      <point x="233" y="938" type="curve" smooth="yes"/>
      <point x="273" y="938"/>
      <point x="316" y="999"/>
      <point x="316" y="1074" type="curve" smooth="yes"/>
      <point x="316" y="1151"/>
      <point x="276" y="1213"/>
      <point x="233" y="1212" type="curve" smooth="yes"/>
      <point x="190" y="1213"/>
      <point x="151" y="1152"/>
      <point x="151" y="1076" type="curve" smooth="yes"/>
      <point x="151" y="999"/>
      <point x="191" y="938"/>
    </contour>
  </outline>
</glyph>
<glyph name="ogonek" format="1">
  <advance width="540"/>
  <unicode hex="02DB"/>
  <outline>
    <contour>
      <point x="263" y="0" type="move" name="_ogonek"/>
    </contour>
    <contour>
      <point x="305" y="-357" type="curve" smooth="yes"/>
      <point x="343" y="-357"/>
      <point x="395" y="-347"/>
      <point x="437" y="-317" type="curve"/>
      <point x="437" y="-227" type="line"/>
      <point x="407" y="-240"/>
      <point x="375" y="-248"/>
      <point x="344" y="-248" type="curve" smooth="yes"/>
      <point x="276" y="-248"/>
      <point x="239" y="-209"/>
      <point x="239" y="-146" type="curve" smooth="yes"/>
      <point x="239" y="-100"/>
      <point x="260" y="-46"/>
      <point x="300" y="0" type="curve"/>
      <point x="253" y="0" type="line"/>
      <point x="172" y="-57"/>
      <point x="127" y="-141"/>
      <point x="127" y="-212" type="curve" smooth="yes"/>
      <point x="127" y="-297"/>
      <point x="193" y="-357"/>
    </contour>
  </outline>
</glyph>
<glyph name="tilde" format="1">
  <advance width="549"/>
  <unicode hex="02DC"/>
  <outline>
    <contour>
      <point x="284" y="832" type="move" name="_top"/>
    </contour>
    <contour>
      <point x="138" y="953" type="curve"/>
      <point x="160" y="953"/>
      <point x="196" y="974"/>
      <point x="198" y="997" type="curve"/>
      <point x="204" y="1015"/>
      <point x="199" y="1031"/>
      <point x="223" y="1031" type="curve" smooth="yes"/>
      <point x="267" y="1023"/>
      <point x="336" y="981"/>
      <point x="391" y="981" type="curve" smooth="yes"/>
      <point x="419" y="981"/>
      <point x="414" y="1054"/>
      <point x="393" y="1108" type="curve"/>
      <point x="374" y="1108"/>
      <point x="337" y="1091"/>
      <point x="334" y="1065" type="curve"/>
      <point x="328" y="1047"/>
      <point x="324" y="1030"/>
      <point x="299" y="1030" type="curve" smooth="yes"/>
      <point x="258" y="1037"/>
      <point x="182" y="1079"/>
      <point x="136" y="1079" type="curve" smooth="yes"/>
      <point x="116" y="1079"/>
      <point x="114" y="1013"/>
    </contour>
  </outline>
</glyph>
<glyph name="hungarumlaut" format="1">
  <advance width="532"/>
  <unicode hex="02DD"/>
  <outline>
    <contour>
      <point x="194" y="805" type="move" name="_top"/>
    </contour>
    <contour>
      <point x="23" y="900" type="line"/>
      <point x="97" y="900" type="line"/>
      <point x="272" y="1165" type="line"/>
      <point x="103" y="1165" type="line"/>
    </contour>
    <contour>
      <point x="268" y="900" type="line"/>
      <point x="341" y="900" type="line"/>
      <point x="516" y="1165" type="line"/>
      <point x="347" y="1165" type="line"/>
    </contour>
  </outline>
</glyph>
<glyph name="uni0307" format="1">
  <advance width="489"/>
  <unicode hex="0307"/>
  <outline>
    <contour>
      <point x="247" y="805" type="move" name="_top"/>
    </contour>
    <contour>
      <point x="245" y="957" type="curve" smooth="yes"/>
      <point x="297" y="957"/>
      <point x="328" y="995"/>
      <point x="327" y="1036" type="curve"/>
      <point x="327" y="1083"/>
      <point x="292" y="1114"/>
      <point x="245" y="1114" type="curve" smooth="yes"/>
      <point x="198" y="1114"/>
      <point x="162" y="1079"/>
      <point x="162" y="1036" type="curve" smooth="yes"/>
      <point x="162" y="994"/>
      <point x="198" y="957"/>
    </contour>
  </outline>
</glyph>
<glyph name="uni030F" format="1">
  <advance width="600"/>
  <unicode hex="030F"/>
  <outline>
    <contour>
      <point x="368" y="805" type="move" name="_top"/>
    </contour>
    <contour>
      <point x="206" y="900" type="line"/>
      <point x="281" y="900" type="line"/>
      <point x="201" y="1165" type="line"/>
      <point x="32" y="1165" type="line"/>
    </contour>
    <contour>
      <point x="451" y="900" type="line"/>
      <point x="525" y="900" type="line"/>
      <point x="445" y="1165" type="line"/>
      <point x="276" y="1165" type="line"/>
    </contour>
  </outline>
</glyph>
<glyph name="uni0311" format="1">
  <advance width="674"/>
  <unicode hex="0311"/>
  <outline>
    <contour>
      <point x="344" y="804" type="move" name="_top"/>
    </contour>
    <contour>
      <point x="133" y="939" type="curve"/>
      <point x="229" y="939" type="line"/>
      <point x="243" y="1013"/>
      <point x="282" y="1047"/>
      <point x="338" y="1047" type="curve" smooth="yes"/>
      <point x="394" y="1047"/>
      <point x="432" y="1013"/>
      <point x="444" y="939" type="curve"/>
      <point x="540" y="939" type="line"/>
      <point x="525" y="1061"/>
      <point x="453" y="1130"/>
      <point x="338" y="1131" type="curve" smooth="yes"/>
      <point x="221" y="1130"/>
      <point x="147" y="1061"/>
    </contour>
  </outline>
</glyph>
<glyph name="commaaccent" format="1">
  <advance width="380"/>
  <unicode hex="0326"/>
  <outline>
    <contour>
      <point x="128" y="0" type="move" name="_bot"/>
    </contour>
    <contour>
      <point x="47" y="-459" type="line"/>
      <point x="158" y="-458"/>
      <point x="215" y="-357"/>
      <point x="215" y="-273" type="curve" smooth="yes"/>
      <point x="215" y="-107" type="line"/>
      <point x="26" y="-107" type="line"/>
      <point x="26" y="-252" type="line"/>
      <point x="115" y="-252" type="line"/>
      <point x="115" y="-335"/>
      <point x="105" y="-346"/>
      <point x="47" y="-388" type="curve"/>
    </contour>
  </outline>
</glyph>
<glyph name="emdash" format="1">
  <advance width="1567"/>
  <unicode hex="2014"/>
  <outline>
    <contour>
      <point x="55" y="339" type="line"/>
      <point x="1513" y="339" type="line"/>
      <point x="1513" y="437" type="line"/>
      <point x="55" y="437" type="line"/>
    </contour>
  </outline>
</glyph>
<glyph name="quoteleft" format="1">
  <advance width="386"/>
  <unicode hex="2018"/>
  <outline>
    <contour>
      <point x="94" y="802" type="line"/>
      <point x="281" y="802" type="line"/>
      <point x="281" y="982" type="line"/>
      <point x="187" y="982" type="line"/>
      <point x="187" y="1076"/>
      <point x="207" y="1107"/>
      <point x="284" y="1126" type="curve"/>
      <point x="284" y="1199" type="line"/>
      <point x="149" y="1200"/>
      <point x="94" y="1124"/>
      <point x="94" y="983" type="curve" smooth="yes"/>
    </contour>
  </outline>
</glyph>
<glyph name="quoteright" format="1">
  <advance width="375"/>
  <unicode hex="2019"/>
  <outline>
    <contour>
      <point x="104" y="782" type="line"/>
      <point x="239" y="780"/>
      <point x="293" y="858"/>
      <point x="294" y="998" type="curve" smooth="yes"/>
      <point x="294" y="1180" type="line"/>
      <point x="107" y="1180" type="line"/>
      <point x="107" y="999" type="line"/>
      <point x="202" y="999" type="line"/>
      <point x="202" y="905"/>
      <point x="181" y="874"/>
      <point x="104" y="855" type="curve"/>
    </contour>
  </outline>
</glyph>
<glyph name="quotesinglbase" format="1">
  <advance width="392"/>
  <unicode hex="201A"/>
  <outline>
    <contour>
      <point x="105" y="-218" type="line"/>
      <point x="240" y="-220"/>
      <point x="294" y="-143"/>
      <point x="295" y="-2" type="curve" smooth="yes"/>
      <point x="295" y="179" type="line"/>
      <point x="108" y="179" type="line"/>
      <point x="108" y="-1" type="line"/>
      <point x="203" y="-1" type="line"/>
      <point x="204" y="-96"/>
      <point x="183" y="-126"/>
      <point x="105" y="-145" type="curve"/>
    </contour>
  </outline>
</glyph>
<glyph name="quotedblleft" format="1">
  <advance width="701"/>
  <unicode hex="201C"/>
  <outline>
    <contour>
      <point x="104" y="802" type="line"/>
      <point x="290" y="802" type="line"/>
      <point x="290" y="982" type="line"/>
      <point x="196" y="982" type="line"/>
      <point x="196" y="1076"/>
      <point x="216" y="1107"/>
      <point x="294" y="1126" type="curve"/>
      <point x="294" y="1199" type="line"/>
      <point x="159" y="1200"/>
      <point x="104" y="1124"/>
      <point x="104" y="983" type="curve" smooth="yes"/>
    </contour>
    <contour>
      <point x="401" y="802" type="line"/>
      <point x="588" y="802" type="line"/>
      <point x="588" y="982" type="line"/>
      <point x="493" y="982" type="line"/>
      <point x="493" y="1077"/>
      <point x="514" y="1107"/>
      <point x="591" y="1126" type="curve"/>
      <point x="591" y="1199" type="line"/>
      <point x="456" y="1201"/>
      <point x="402" y="1124"/>
      <point x="401" y="983" type="curve" smooth="yes"/>
    </contour>
  </outline>
</glyph>
<glyph name="quotedblright" format="1">
  <advance width="691"/>
  <unicode hex="201D"/>
  <outline>
    <contour>
      <point x="108" y="782" type="line"/>
      <point x="243" y="780"/>
      <point x="297" y="858"/>
      <point x="298" y="998" type="curve" smooth="yes"/>
      <point x="298" y="1180" type="line"/>
      <point x="111" y="1180" type="line"/>
      <point x="111" y="999" type="line"/>
      <point x="205" y="999" type="line"/>
      <point x="206" y="905"/>
      <point x="185" y="874"/>
      <point x="108" y="855" type="curve"/>
    </contour>
    <contour>
      <point x="405" y="782" type="line"/>
      <point x="540" y="781"/>
      <point x="595" y="858"/>
      <point x="595" y="998" type="curve" smooth="yes"/>
      <point x="595" y="1180" type="line"/>
      <point x="408" y="1180" type="line"/>
      <point x="408" y="999" type="line"/>
      <point x="503" y="999" type="line"/>
      <point x="503" y="905"/>
      <point x="482" y="874"/>
      <point x="405" y="855" type="curve"/>
    </contour>
  </outline>
</glyph>
<glyph name="quotedblbase" format="1">
  <advance width="753"/>
  <unicode hex="201E"/>
  <outline>
    <contour>
      <point x="108" y="-218" type="line"/>
      <point x="243" y="-220"/>
      <point x="297" y="-143"/>
      <point x="297" y="-2" type="curve" smooth="yes"/>
      <point x="297" y="179" type="line"/>
      <point x="111" y="179" type="line"/>
      <point x="111" y="-1" type="line"/>
      <point x="205" y="-1" type="line"/>
      <point x="206" y="-96"/>
      <point x="185" y="-126"/>
      <point x="108" y="-145" type="curve"/>
    </contour>
    <contour>
      <point x="457" y="-218" type="line"/>
      <point x="592" y="-219"/>
      <point x="647" y="-143"/>
      <point x="647" y="-2" type="curve" smooth="yes"/>
      <point x="647" y="179" type="line"/>
      <point x="460" y="179" type="line"/>
      <point x="460" y="-1" type="line"/>
      <point x="555" y="-1" type="line"/>
      <point x="555" y="-95"/>
      <point x="535" y="-126"/>
      <point x="457" y="-145" type="curve"/>
    </contour>
  </outline>
</glyph>
<glyph name="dagger" format="1">
  <advance width="807"/>
  <unicode hex="2020"/>
  <outline>
    <contour>
      <point x="376" y="-70" type="curve"/>
      <point x="432" y="-70" type="line"/>
      <point x="432" y="176"/>
      <point x="452" y="399"/>
      <point x="479" y="613" type="curve"/>
      <point x="479" y="639"/>
      <point x="437" y="787"/>
      <point x="432" y="816" type="curve"/>
      <point x="672" y="779" type="line"/>
      <point x="672" y="892" type="line"/>
      <point x="432" y="860" type="line"/>
      <point x="470" y="1203" type="line"/>
      <point x="339" y="1203" type="line"/>
      <point x="376" y="860" type="line"/>
      <point x="134" y="892" type="line"/>
      <point x="134" y="779" type="line"/>
      <point x="376" y="816" type="line"/>
      <point x="370" y="786"/>
      <point x="331" y="638"/>
      <point x="331" y="612" type="curve"/>
      <point x="356" y="396"/>
      <point x="376" y="174"/>
    </contour>
  </outline>
</glyph>
<glyph name="bullet" format="1">
  <advance width="674"/>
  <unicode hex="2022"/>
  <outline>
    <contour>
      <point x="337" y="393" type="curve" smooth="yes"/>
      <point x="453" y="393"/>
      <point x="551" y="485"/>
      <point x="551" y="599" type="curve" smooth="yes"/>
      <point x="551" y="714"/>
      <point x="453" y="804"/>
      <point x="337" y="804" type="curve" smooth="yes"/>
      <point x="219" y="804"/>
      <point x="123" y="716"/>
      <point x="123" y="599" type="curve" smooth="yes"/>
      <point x="123" y="483"/>
      <point x="219" y="393"/>
    </contour>
  </outline>
</glyph>
<glyph name="perthousand" format="1">
  <advance width="2296"/>
  <unicode hex="2030"/>
  <outline>
    <contour>
      <point x="1898" y="57" type="curve" smooth="yes"/>
      <point x="1790" y="57"/>
      <point x="1684" y="130"/>
      <point x="1684" y="271" type="curve" smooth="yes"/>
      <point x="1684" y="411"/>
      <point x="1790" y="484"/>
      <point x="1898" y="484" type="curve" smooth="yes"/>
      <point x="2004" y="484"/>
      <point x="2113" y="411"/>
      <point x="2113" y="271" type="curve" smooth="yes"/>
      <point x="2113" y="130"/>
      <point x="2004" y="57"/>
    </contour>
    <contour>
      <point x="1898" y="-23" type="curve" smooth="yes"/>
      <point x="2049" y="-23"/>
      <point x="2203" y="77"/>
      <point x="2203" y="271" type="curve" smooth="yes"/>
      <point x="2203" y="465"/>
      <point x="2049" y="563"/>
      <point x="1898" y="563" type="curve" smooth="yes"/>
      <point x="1744" y="563"/>
      <point x="1595" y="463"/>
      <point x="1595" y="271" type="curve" smooth="yes"/>
      <point x="1595" y="77"/>
      <point x="1745" y="-23"/>
    </contour>
    <component base="percent"/>
  </outline>
</glyph>
<glyph name="Euro" format="1">
  <advance width="1322"/>
  <unicode hex="20AC"/>
  <outline>
    <contour>
      <point x="699" y="-19" type="curve" smooth="yes"/>
      <point x="957" y="-19"/>
      <point x="1140" y="101"/>
      <point x="1229" y="295" type="curve"/>
      <point x="1114" y="359" type="line"/>
      <point x="1045" y="180"/>
      <point x="900" y="96"/>
      <point x="696" y="96" type="curve" smooth="yes"/>
      <point x="489" y="96"/>
      <point x="341" y="227"/>
      <point x="285" y="410" type="curve"/>
      <point x="602" y="410" type="line"/>
      <point x="639" y="513" type="line"/>
      <point x="263" y="513" type="line"/>
      <point x="261" y="535"/>
      <point x="260" y="557"/>
      <point x="260" y="580" type="curve" smooth="yes"/>
      <point x="260" y="599"/>
      <point x="261" y="618"/>
      <point x="263" y="636" type="curve"/>
      <point x="602" y="636" type="line"/>
      <point x="639" y="739" type="line"/>
      <point x="284" y="739" type="line"/>
      <point x="340" y="922"/>
      <point x="495" y="1056"/>
      <point x="697" y="1056" type="curve" smooth="yes"/>
      <point x="891" y="1056"/>
      <point x="1025" y="962"/>
      <point x="1098" y="810" type="curve"/>
      <point x="1205" y="813" type="line"/>
      <point x="1205" y="1153" type="line"/>
      <point x="1091" y="1153" type="line"/>
      <point x="1091" y="1004" type="line"/>
      <point x="995" y="1115"/>
      <point x="862" y="1171"/>
      <point x="707" y="1171" type="curve" smooth="yes"/>
      <point x="417" y="1171"/>
      <point x="194" y="1003"/>
      <point x="130" y="739" type="curve"/>
      <point x="12" y="739" type="line"/>
      <point x="-25" y="636" type="line"/>
      <point x="112" y="636" type="line"/>
      <point x="111" y="617"/>
      <point x="110" y="597"/>
      <point x="110" y="576" type="curve" smooth="yes"/>
      <point x="110" y="555"/>
      <point x="111" y="534"/>
      <point x="113" y="513" type="curve"/>
      <point x="12" y="513" type="line"/>
      <point x="-25" y="410" type="line"/>
      <point x="130" y="410" type="line"/>
      <point x="197" y="136"/>
      <point x="427" y="-19"/>
    </contour>
  </outline>
</glyph>
<glyph name="uni2113" format="1">
  <advance width="590"/>
  <unicode hex="2113"/>
  <outline>
    <contour>
      <point x="453" y="-10" type="curve"/>
      <point x="471" y="79" type="line"/>
      <point x="323" y="79"/>
      <point x="267" y="98"/>
      <point x="292" y="259" type="curve" smooth="yes"/>
      <point x="443" y="1215" type="line"/>
      <point x="140" y="1215" type="line"/>
      <point x="130" y="1135" type="line"/>
      <point x="319" y="1135" type="line"/>
      <point x="178" y="260" type="line" smooth="yes"/>
      <point x="142" y="39"/>
      <point x="238" y="-12"/>
    </contour>
  </outline>
</glyph>
<glyph name="trademark" format="1">
  <advance width="1890"/>
  <unicode hex="2122"/>
  <outline>
    <contour>
      <point x="837" y="435" type="line"/>
      <point x="1110" y="435" type="line"/>
      <point x="1110" y="514" type="line"/>
      <point x="1021" y="514" type="line"/>
      <point x="1021" y="1018" type="line"/>
      <point x="1278" y="448" type="line"/>
      <point x="1308" y="448" type="line"/>
      <point x="1563" y="1019" type="line"/>
      <point x="1563" y="514" type="line"/>
      <point x="1475" y="514" type="line"/>
      <point x="1475" y="435" type="line"/>
      <point x="1753" y="435" type="line"/>
      <point x="1753" y="514" type="line"/>
      <point x="1659" y="514" type="line"/>
      <point x="1659" y="1072" type="line"/>
      <point x="1753" y="1072" type="line"/>
      <point x="1753" y="1153" type="line"/>
      <point x="1518" y="1153" type="line"/>
      <point x="1294" y="648" type="line"/>
      <point x="1070" y="1153" type="line"/>
      <point x="837" y="1153" type="line"/>
      <point x="837" y="1072" type="line"/>
      <point x="932" y="1072" type="line"/>
      <point x="932" y="514" type="line"/>
      <point x="837" y="514" type="line"/>
    </contour>
    <contour>
      <point x="280" y="435" type="line"/>
      <point x="603" y="435" type="line"/>
      <point x="603" y="514" type="line"/>
      <point x="494" y="514" type="line"/>
      <point x="494" y="1071" type="line"/>
      <point x="665" y="1071" type="line"/>
      <point x="665" y="913" type="line"/>
      <point x="754" y="913" type="line"/>
      <point x="754" y="1153" type="line"/>
      <point x="128" y="1153" type="line"/>
      <point x="128" y="913" type="line"/>
      <point x="216" y="913" type="line"/>
      <point x="216" y="1071" type="line"/>
      <point x="389" y="1071" type="line"/>
      <point x="389" y="514" type="line"/>
      <point x="280" y="514" type="line"/>
    </contour>
  </outline>
</glyph>
<glyph name="uni2126" format="1">
  <advance width="1359"/>
  <unicode hex="2126"/>
  <outline>
    <contour>
      <point x="195" y="0" type="line"/>
      <point x="608" y="0" type="line"/>
      <point x="608" y="89" type="line"/>
      <point x="384" y="235"/>
      <point x="276" y="461"/>
      <point x="276" y="658" type="curve" smooth="yes"/>
      <point x="276" y="882"/>
      <point x="416" y="1070"/>
      <point x="684" y="1070" type="curve" smooth="yes"/>
      <point x="953" y="1070"/>
      <point x="1093" y="882"/>
      <point x="1093" y="658" type="curve" smooth="yes"/>
      <point x="1093" y="461"/>
      <point x="985" y="235"/>
      <point x="760" y="89" type="curve"/>
      <point x="760" y="0" type="line"/>
      <point x="1173" y="0" type="line"/>
      <point x="1173" y="98" type="line"/>
      <point x="911" y="98" type="line"/>
      <point x="1113" y="235"/>
      <point x="1217" y="459"/>
      <point x="1217" y="666" type="curve" smooth="yes"/>
      <point x="1217" y="933"/>
      <point x="1043" y="1174"/>
      <point x="684" y="1174" type="curve" smooth="yes"/>
      <point x="326" y="1174"/>
      <point x="152" y="933"/>
      <point x="152" y="666" type="curve" smooth="yes"/>
      <point x="152" y="459"/>
      <point x="256" y="235"/>
      <point x="458" y="98" type="curve"/>
      <point x="195" y="98" type="line"/>
    </contour>
  </outline>
</glyph>
<glyph name="estimated" format="1">
  <advance width="975"/>
  <unicode hex="212E"/>
  <outline>
    <contour>
      <point x="524" y="-17" type="curve" smooth="yes"/>
      <point x="677" y="-17"/>
      <point x="782" y="50"/>
      <point x="861" y="138" type="curve"/>
      <point x="825" y="174" type="line"/>
      <point x="754" y="95"/>
      <point x="661" y="35"/>
      <point x="525" y="35" type="curve" smooth="yes"/>
      <point x="346" y="35"/>
      <point x="240" y="181"/>
      <point x="237" y="389" type="curve"/>
      <point x="865" y="389" type="line"/>
      <point x="865" y="645"/>
      <point x="736" y="820"/>
      <point x="508" y="820" type="curve" smooth="yes"/>
      <point x="269" y="820"/>
      <point x="101" y="641"/>
      <point x="101" y="402" type="curve" smooth="yes"/>
      <point x="101" y="163"/>
      <point x="253" y="-17"/>
    </contour>
    <contour>
      <point x="238" y="441" type="line"/>
      <point x="248" y="640"/>
      <point x="365" y="778"/>
      <point x="512" y="778" type="curve" smooth="yes"/>
      <point x="673" y="778"/>
      <point x="789" y="626"/>
      <point x="793" y="441" type="curve"/>
    </contour>
  </outline>
</glyph>
<glyph name="uni2206" format="1">
  <advance width="904"/>
  <unicode hex="2206"/>
  <outline>
    <contour>
      <point x="64" y="0" type="line"/>
      <point x="846" y="0" type="line"/>
      <point x="846" y="85" type="line"/>
      <point x="505" y="1111" type="line"/>
      <point x="402" y="1111" type="line"/>
      <point x="64" y="81" type="line"/>
    </contour>
    <contour>
      <point x="153" y="86" type="line"/>
      <point x="153" y="86"/>
      <point x="420" y="948"/>
      <point x="426" y="977" type="curve"/>
      <point x="433" y="948"/>
      <point x="709" y="86"/>
      <point x="709" y="86" type="curve"/>
    </contour>
  </outline>
</glyph>
<glyph name="product" format="1">
  <advance width="1286"/>
  <unicode hex="220F"/>
  <outline>
    <contour>
      <point x="88" y="0" type="line"/>
      <point x="530" y="0" type="line"/>
      <point x="530" y="97" type="line"/>
      <point x="376" y="97" type="line"/>
      <point x="376" y="1056" type="line"/>
      <point x="909" y="1056" type="line"/>
      <point x="909" y="97" type="line"/>
      <point x="756" y="97" type="line"/>
      <point x="756" y="0" type="line"/>
      <point x="1198" y="0" type="line"/>
      <point x="1198" y="97" type="line"/>
      <point x="1042" y="97" type="line"/>
      <point x="1042" y="1056" type="line"/>
      <point x="1198" y="1056" type="line"/>
      <point x="1198" y="1153" type="line"/>
      <point x="88" y="1153" type="line"/>
      <point x="88" y="1056" type="line"/>
      <point x="244" y="1056" type="line"/>
      <point x="244" y="97" type="line"/>
      <point x="88" y="97" type="line"/>
    </contour>
  </outline>
</glyph>
<glyph name="summation" format="1">
  <advance width="1101"/>
  <unicode hex="2211"/>
  <outline>
    <contour>
      <point x="78" y="0" type="line"/>
      <point x="1005" y="0" type="line"/>
      <point x="1005" y="336" type="line"/>
      <point x="895" y="336" type="line"/>
      <point x="895" y="97" type="line"/>
      <point x="319" y="97" type="line"/>
      <point x="702" y="581" type="line"/>
      <point x="702" y="616" type="line"/>
      <point x="350" y="1056" type="line"/>
      <point x="888" y="1056" type="line"/>
      <point x="888" y="813" type="line"/>
      <point x="999" y="813" type="line"/>
      <point x="999" y="1153" type="line"/>
      <point x="78" y="1153" type="line"/>
      <point x="78" y="1056" type="line"/>
      <point x="206" y="1056" type="line"/>
      <point x="584" y="574" type="line"/>
      <point x="206" y="97" type="line"/>
      <point x="78" y="97" type="line"/>
    </contour>
  </outline>
</glyph>
<glyph name="radical" format="1">
  <advance width="1065"/>
  <unicode hex="221A"/>
  <outline>
    <contour>
      <point x="481" y="-14" type="line"/>
      <point x="583" y="-14" type="line"/>
      <point x="1045" y="1363" type="line"/>
      <point x="938" y="1363" type="line"/>
      <point x="536" y="167" type="line"/>
      <point x="316" y="674" type="line"/>
      <point x="30" y="674" type="line"/>
      <point x="30" y="568" type="line"/>
      <point x="210" y="568" type="line"/>
    </contour>
  </outline>
</glyph>
<glyph name="infinity" format="1">
  <advance width="1356"/>
  <unicode hex="221E"/>
  <outline>
    <contour>
      <point x="968" y="226" type="curve" smooth="yes"/>
      <point x="1114" y="226"/>
      <point x="1241" y="354"/>
      <point x="1241" y="548" type="curve" smooth="yes"/>
      <point x="1241" y="755"/>
      <point x="1116" y="871"/>
      <point x="969" y="871" type="curve" smooth="yes"/>
      <point x="847" y="871"/>
      <point x="753" y="798"/>
      <point x="682" y="665" type="curve"/>
      <point x="605" y="816"/>
      <point x="488" y="876"/>
      <point x="392" y="876" type="curve" smooth="yes"/>
      <point x="222" y="876"/>
      <point x="115" y="728"/>
      <point x="115" y="553" type="curve" smooth="yes"/>
      <point x="115" y="367"/>
      <point x="215" y="231"/>
      <point x="392" y="231" type="curve" smooth="yes"/>
      <point x="495" y="231"/>
      <point x="597" y="296"/>
      <point x="675" y="442" type="curve"/>
      <point x="757" y="283"/>
      <point x="861" y="226"/>
    </contour>
    <contour>
      <point x="389" y="313" type="curve" smooth="yes"/>
      <point x="267" y="313"/>
      <point x="206" y="420"/>
      <point x="206" y="552" type="curve" smooth="yes"/>
      <point x="206" y="673"/>
      <point x="268" y="793"/>
      <point x="387" y="793" type="curve" smooth="yes"/>
      <point x="487" y="793"/>
      <point x="566" y="709"/>
      <point x="632" y="553" type="curve"/>
      <point x="557" y="387"/>
      <point x="479" y="313"/>
    </contour>
    <contour>
      <point x="968" y="308" type="curve" smooth="yes"/>
      <point x="864" y="308"/>
      <point x="796" y="381"/>
      <point x="723" y="548" type="curve"/>
      <point x="797" y="709"/>
      <point x="869" y="788"/>
      <point x="966" y="788" type="curve" smooth="yes"/>
      <point x="1077" y="788"/>
      <point x="1150" y="683"/>
      <point x="1150" y="550" type="curve" smooth="yes"/>
      <point x="1150" y="409"/>
      <point x="1076" y="308"/>
    </contour>
  </outline>
</glyph>
<glyph name="notequal" format="1">
  <advance width="1055"/>
  <unicode hex="2260"/>
  <outline>
    <contour>
      <point x="360" y="86" type="line"/>
      <point x="461" y="86" type="line"/>
      <point x="513" y="296" type="line"/>
      <point x="938" y="296" type="line"/>
      <point x="938" y="397" type="line"/>
      <point x="540" y="397" type="line"/>
      <point x="613" y="677" type="line"/>
      <point x="938" y="677" type="line"/>
      <point x="938" y="779" type="line"/>
      <point x="637" y="779" type="line"/>
      <point x="694" y="989" type="line"/>
      <point x="595" y="989" type="line"/>
      <point x="541" y="779" type="line"/>
      <point x="118" y="779" type="line"/>
      <point x="118" y="677" type="line"/>
      <point x="515" y="677" type="line"/>
      <point x="442" y="397" type="line"/>
      <point x="118" y="397" type="line"/>
      <point x="118" y="296" type="line"/>
      <point x="415" y="296" type="line"/>
    </contour>
  </outline>
</glyph>
<glyph name="lessequal" format="1">
  <advance width="1045"/>
  <unicode hex="2264"/>
  <outline>
    <contour>
      <point x="940" y="255" type="line"/>
      <point x="940" y="369" type="line"/>
      <point x="287" y="651" type="line"/>
      <point x="940" y="937" type="line"/>
      <point x="940" y="1051" type="line"/>
      <point x="125" y="682" type="line"/>
      <point x="125" y="622" type="line"/>
    </contour>
    <contour>
      <point x="125" y="0" type="line"/>
      <point x="940" y="0" type="line"/>
      <point x="940" y="100" type="line"/>
      <point x="125" y="100" type="line"/>
    </contour>
  </outline>
</glyph>
<glyph name="greaterequal" format="1">
  <advance width="1045"/>
  <unicode hex="2265"/>
  <outline>
    <contour>
      <point x="121" y="255" type="line"/>
      <point x="936" y="622" type="line"/>
      <point x="936" y="682" type="line"/>
      <point x="121" y="1051" type="line"/>
      <point x="121" y="937" type="line"/>
      <point x="774" y="651" type="line"/>
      <point x="121" y="369" type="line"/>
    </contour>
    <contour>
      <point x="121" y="0" type="line"/>
      <point x="936" y="0" type="line"/>
      <point x="936" y="100" type="line"/>
      <point x="121" y="100" type="line"/>
    </contour>
  </outline>
</glyph>
<glyph name="lozenge" format="1">
  <advance width="990"/>
  <unicode hex="25CA"/>
  <outline>
    <contour>
      <point x="460" y="-8" type="line"/>
      <point x="531" y="-8" type="line"/>
      <point x="904" y="593" type="line"/>
      <point x="531" y="1186" type="line"/>
      <point x="460" y="1186" type="line"/>
      <point x="87" y="591" type="line"/>
    </contour>
    <contour>
      <point x="498" y="114" type="line"/>
      <point x="207" y="593" type="line"/>
      <point x="498" y="1060" type="line"/>
      <point x="785" y="593" type="line"/>
    </contour>
  </outline>
</glyph>
<glyph name="fi" format="1">
  <advance width="1124"/>
  <unicode hex="FB01"/>
  <outline>
    <contour>
      <point x="88" y="0" type="line"/>
      <point x="530" y="0" type="line"/>
      <point x="530" y="97" type="line"/>
      <point x="359" y="97" type="line"/>
      <point x="359" y="709" type="line"/>
      <point x="812" y="709" type="line"/>
      <point x="812" y="97" type="line"/>
      <point x="655" y="97" type="line"/>
      <point x="655" y="0" type="line"/>
      <point x="1083" y="0" type="line"/>
      <point x="1083" y="97" type="line"/>
      <point x="937" y="97" type="line"/>
      <point x="937" y="804" type="line"/>
      <point x="359" y="804" type="line"/>
      <point x="359" y="919" type="line" smooth="yes"/>
      <point x="359" y="1078"/>
      <point x="488" y="1146"/>
      <point x="627" y="1146" type="curve" smooth="yes"/>
      <point x="701" y="1146"/>
      <point x="770" y="1127"/>
      <point x="810" y="1093" type="curve"/>
      <point x="798" y="1081"/>
      <point x="791" y="1063"/>
      <point x="791" y="1044" type="curve" smooth="yes"/>
      <point x="791" y="999"/>
      <point x="824" y="967"/>
      <point x="877" y="967" type="curve" smooth="yes"/>
      <point x="924" y="967"/>
      <point x="954" y="1000"/>
      <point x="954" y="1047" type="curve" smooth="yes"/>
      <point x="954" y="1168"/>
      <point x="783" y="1239"/>
      <point x="615" y="1239" type="curve" smooth="yes"/>
      <point x="418" y="1239"/>
      <point x="234" y="1138"/>
      <point x="234" y="917" type="curve" smooth="yes"/>
      <point x="234" y="804" type="line"/>
      <point x="96" y="804" type="line"/>
      <point x="96" y="709" type="line"/>
      <point x="234" y="709" type="line"/>
      <point x="234" y="97" type="line"/>
      <point x="88" y="97" type="line"/>
    </contour>
  </outline>
</glyph>
<glyph name="fl" format="1">
  <advance width="1185"/>
  <unicode hex="FB02"/>
  <outline>
    <contour>
      <point x="88" y="0" type="line"/>
      <point x="530" y="0" type="line"/>
      <point x="530" y="97" type="line"/>
      <point x="359" y="97" type="line"/>
      <point x="359" y="709" type="line"/>
      <point x="535" y="709" type="line"/>
      <point x="535" y="804" type="line"/>
      <point x="359" y="804" type="line"/>
      <point x="359" y="925" type="line" smooth="yes"/>
      <point x="359" y="1080"/>
      <point x="520" y="1135"/>
      <point x="656" y="1135" type="curve" smooth="yes"/>
      <point x="754" y="1135"/>
      <point x="839" y="1110"/>
      <point x="839" y="1078" type="curve" smooth="yes"/>
      <point x="839" y="97" type="line"/>
      <point x="675" y="97" type="line"/>
      <point x="675" y="0" type="line"/>
      <point x="1122" y="0" type="line"/>
      <point x="1122" y="97" type="line"/>
      <point x="964" y="97" type="line"/>
      <point x="964" y="1091" type="line" smooth="yes"/>
      <point x="964" y="1182"/>
      <point x="813" y="1237"/>
      <point x="649" y="1237" type="curve" smooth="yes"/>
      <point x="451" y="1237"/>
      <point x="234" y="1148"/>
      <point x="234" y="930" type="curve" smooth="yes"/>
      <point x="234" y="804" type="line"/>
      <point x="96" y="804" type="line"/>
      <point x="96" y="709" type="line"/>
      <point x="234" y="709" type="line"/>
      <point x="234" y="97" type="line"/>
      <point x="88" y="97" type="line"/>
    </contour>
  </outline>
</glyph>
<glyph name="ff" format="1">
  <advance width="1212"/>
  <outline>
    <contour>
      <point x="657" y="0" type="line"/>
      <point x="1093" y="0" type="line"/>
      <point x="1093" y="97" type="line"/>
      <point x="924" y="97" type="line"/>
      <point x="924" y="709" type="line"/>
      <point x="1105" y="709" type="line"/>
      <point x="1105" y="804" type="line"/>
      <point x="924" y="804" type="line"/>
      <point x="924" y="959" type="line" smooth="yes"/>
      <point x="924" y="1037"/>
      <point x="975" y="1078"/>
      <point x="1033" y="1078" type="curve" smooth="yes"/>
      <point x="1081" y="1078"/>
      <point x="1123" y="1054"/>
      <point x="1139" y="983" type="curve"/>
      <point x="1230" y="1012" type="line"/>
      <point x="1209" y="1128"/>
      <point x="1140" y="1176"/>
      <point x="1026" y="1176" type="curve" smooth="yes"/>
      <point x="899" y="1176"/>
      <point x="800" y="1097"/>
      <point x="800" y="964" type="curve" smooth="yes"/>
      <point x="800" y="804" type="line"/>
      <point x="462" y="804" type="line"/>
      <point x="462" y="709" type="line"/>
      <point x="800" y="709" type="line"/>
      <point x="800" y="97" type="line"/>
      <point x="657" y="97" type="line"/>
    </contour>
    <component base="f"/>
  </outline>
</glyph>
<glyph name="ffl" format="1">
  <advance width="1780"/>
  <outline>
    <contour>
      <point x="88" y="0" type="line"/>
      <point x="525" y="0" type="line"/>
      <point x="525" y="97" type="line"/>
      <point x="355" y="97" type="line"/>
      <point x="355" y="709" type="line"/>
      <point x="729" y="709" type="line"/>
      <point x="729" y="804" type="line"/>
      <point x="355" y="804" type="line"/>
      <point x="355" y="952" type="line" smooth="yes"/>
      <point x="355" y="1143"/>
      <point x="651" y="1159"/>
      <point x="878" y="1010" type="curve"/>
      <point x="927" y="1084" type="line"/>
      <point x="670" y="1280"/>
      <point x="231" y="1244"/>
      <point x="231" y="958" type="curve" smooth="yes"/>
      <point x="231" y="804" type="line"/>
      <point x="96" y="804" type="line"/>
      <point x="96" y="709" type="line"/>
      <point x="231" y="709" type="line"/>
      <point x="231" y="97" type="line"/>
      <point x="88" y="97" type="line"/>
    </contour>
    <component base="fl" xOffset="595"/>
  </outline>
</glyph>
<glyph name="lc_ascender_stem_2" format="1">
  <advance width="785"/>
  <outline>
    <contour>
      <point x="227" y="0" type="line"/>
      <point x="496" y="0" type="line"/>
      <point x="496" y="97" type="line"/>
      <point x="351" y="97" type="line"/>
      <point x="351" y="1174" type="line"/>
      <point x="82" y="1174" type="line"/>
      <point x="82" y="1077" type="line"/>
      <point x="227" y="1077" type="line"/>
    </contour>
  </outline>
</glyph>
<glyph name="lc_bowl_left" format="1">
  <advance width="1117"/>
  <outline>
    <contour>
      <point x="542" y="-20" type="curve" smooth="yes"/>
      <point x="659" y="-20"/>
      <point x="779" y="20"/>
      <point x="871" y="113" type="curve"/>
      <point x="871" y="218" type="line"/>
      <point x="775" y="121"/>
      <point x="658" y="84"/>
      <point x="551" y="84" type="curve" smooth="yes"/>
      <point x="394" y="84"/>
      <point x="260" y="187"/>
      <point x="260" y="401" type="curve" smooth="yes"/>
      <point x="260" y="616"/>
      <point x="386" y="719"/>
      <point x="545" y="719" type="curve" smooth="yes"/>
      <point x="648" y="719"/>
      <point x="766" y="678"/>
      <point x="871" y="590" type="curve"/>
      <point x="871" y="688" type="line"/>
      <point x="772" y="777"/>
      <point x="649" y="823"/>
      <point x="532" y="823" type="curve" smooth="yes"/>
      <point x="322" y="823"/>
      <point x="131" y="679"/>
      <point x="132" y="399" type="curve" smooth="yes"/>
      <point x="133" y="127"/>
      <point x="331" y="-20"/>
    </contour>
  </outline>
</glyph>
<glyph name="lc_xheight_stem" format="1">
  <advance width="790"/>
  <outline>
    <contour>
      <point x="114" y="0" type="line"/>
      <point x="553" y="0" type="line"/>
      <point x="553" y="97" type="line"/>
      <point x="403" y="97" type="line"/>
      <point x="403" y="636" type="line"/>
      <point x="403" y="804" type="line"/>
      <point x="112" y="804" type="line"/>
      <point x="112" y="708" type="line"/>
      <point x="279" y="708" type="line"/>
      <point x="279" y="97" type="line"/>
      <point x="114" y="97" type="line"/>
    </contour>
  </outline>
</glyph>
<glyph name="uc_main_stem" format="1">
  <advance width="650"/>
  <outline>
    <contour>
      <point x="120" y="0" type="line"/>
      <point x="531" y="0" type="line"/>
      <point x="531" y="97" type="line"/>
      <point x="393" y="97" type="line"/>
      <point x="393" y="1055" type="line"/>
      <point x="531" y="1055" type="line"/>
      <point x="531" y="1152" type="line"/>
      <point x="120" y="1152" type="line"/>
      <point x="120" y="1055" type="line"/>
      <point x="259" y="1055" type="line"/>
      <point x="259" y="97" type="line"/>
      <point x="120" y="97" type="line"/>
    </contour>
  </outline>
</glyph>
